<svg width="5292" height="5293" viewBox="0 0 5292 5293" fill="none" xmlns="http://www.w3.org/2000/svg">
<g fill-opacity="0.4">
<path d="M6.32764 409.865H486.108L725.999 816.668L486.108 1223.44H6.32764" stroke="#C1C0C1" stroke-width="5.33334" stroke-miterlimit="10" stroke-linejoin="round"/>
<path d="M725.999 2.66948L486.108 409.45H6.32764" stroke="#C1C0C1" stroke-width="5.33332" stroke-miterlimit="10" stroke-linejoin="round"/>
<path d="M1206.65 2.66991L1446.53 409.45L1206.65 816.263H726.869L486.978 409.45L726.869 2.66991" stroke="#C1C0C1" stroke-width="5.33332" stroke-miterlimit="10" stroke-linejoin="round"/>
<path d="M2647.73 2.66991L2887.61 409.45L2647.73 816.263H2167.95L1928.05 409.45L2167.95 2.66991" stroke="#C1C0C1" stroke-width="5.33332" stroke-miterlimit="10" stroke-linejoin="round"/>
<path d="M726.868 1630.24L486.978 1223.47L726.868 816.67H1206.65L1446.53 1223.47L1206.65 1630.24H726.868Z" stroke="#C1C0C1" stroke-width="5.33333" stroke-miterlimit="10" stroke-linejoin="round"/>
<path d="M1447.41 2037.03L1207.52 1630.25L1447.41 1223.45H1927.19L2167.08 1630.25L1927.19 2037.03H1447.41Z" stroke="#C1C0C1" stroke-width="5.33333" stroke-miterlimit="10" stroke-linejoin="round"/>
<path d="M1447.42 1223.44L1207.52 816.668L1447.42 409.865H1927.19L2167.08 816.668L1927.19 1223.44H1447.42Z" stroke="#C1C0C1" stroke-width="5.33334" stroke-miterlimit="10" stroke-linejoin="round"/>
<path d="M2167.94 1630.24L1928.05 1223.47L2167.94 816.67H2647.73L2887.61 1223.47L2647.73 1630.24H2167.94Z" stroke="#C1C0C1" stroke-width="5.33333" stroke-miterlimit="10" stroke-linejoin="round"/>
<path d="M6.32764 1223.45H486.107L725.998 1630.25L486.107 2037.03H6.32764" stroke="#C1C0C1" stroke-width="5.33333" stroke-miterlimit="10" stroke-linejoin="round"/>
<path d="M6.32764 2037.02H486.108L726 2443.8L486.108 2850.6H6.32764" stroke="#C1C0C1" stroke-width="5.33336" stroke-miterlimit="10" stroke-linejoin="round"/>
<path d="M726.866 3257.41L486.975 2850.62L726.866 2443.82H1206.64L1446.53 2850.62L1206.64 3257.41H726.866Z" stroke="#C1C0C1" stroke-width="5.33331" stroke-miterlimit="10" stroke-linejoin="round"/>
<path d="M726.87 2443.82L486.979 2037.02L726.87 1630.24H1206.65L1446.54 2037.02L1206.65 2443.82H726.87Z" stroke="#C1C0C1" stroke-width="5.33335" stroke-miterlimit="10" stroke-linejoin="round"/>
<path d="M1447.42 2850.6L1207.52 2443.8L1447.42 2037.02H1927.19L2167.08 2443.8L1927.19 2850.6H1447.42Z" stroke="#C1C0C1" stroke-width="5.33336" stroke-miterlimit="10" stroke-linejoin="round"/>
<path d="M2888.5 1223.04L2648.6 816.23L2888.5 409.453H3368.27L3608.18 816.23L3368.27 1223.04H2888.5Z" stroke="#C1C0C1" stroke-width="5.33334" stroke-miterlimit="10" stroke-linejoin="round"/>
<path d="M3609.02 1629.84L3369.14 1223.04L3609.02 816.257H4088.8L4328.69 1223.04L4088.8 1629.84H3609.02Z" stroke="#C1C0C1" stroke-width="5.33333" stroke-miterlimit="10" stroke-linejoin="round"/>
<path d="M4088.8 2.66991L4328.7 409.45L4088.8 816.263H3609.03L3369.13 409.45L3609.03 2.66991" stroke="#C1C0C1" stroke-width="5.33332" stroke-miterlimit="10" stroke-linejoin="round"/>
<path d="M2167.95 2443.41L1928.06 2036.6L2167.95 1629.82H2647.74L2887.62 2036.6L2647.74 2443.41H2167.95Z" stroke="#C1C0C1" stroke-width="5.33334" stroke-miterlimit="10" stroke-linejoin="round"/>
<path d="M2888.5 2850.19L2648.59 2443.39L2888.5 2036.6H3368.28L3608.17 2443.39L3368.28 2850.19H2888.5Z" stroke="#C1C0C1" stroke-width="5.33334" stroke-miterlimit="10" stroke-linejoin="round"/>
<path d="M2888.48 2036.62L2648.6 1629.83L2888.48 1223.04H3368.27L3608.16 1629.83L3368.27 2036.62H2888.48Z" stroke="#C1C0C1" stroke-width="5.33332" stroke-miterlimit="10" stroke-linejoin="round"/>
<path d="M3609.01 2443.4L3369.13 2036.61L3609.01 1629.82H4088.81L4328.69 2036.61L4088.81 2443.4H3609.01Z" stroke="#C1C0C1" stroke-width="5.33332" stroke-miterlimit="10" stroke-linejoin="round"/>
<path d="M3609.01 3256.99L3369.13 2850.19L3609.01 2443.4H4088.81L4328.69 2850.19L4088.81 3256.99H3609.01Z" stroke="#C1C0C1" stroke-width="5.33332" stroke-miterlimit="10" stroke-linejoin="round"/>
<path d="M6.32764 3664.19H486.108L725.997 4070.97L486.108 4477.76H6.32764" stroke="#C1C0C1" stroke-width="5.33333" stroke-miterlimit="10" stroke-linejoin="round"/>
<path d="M6.32764 2850.61H486.109L726 3257.4L486.109 3664.18H6.32764" stroke="#C1C0C1" stroke-width="5.33335" stroke-miterlimit="10" stroke-linejoin="round"/>
<path d="M726.868 4070.97L486.977 3664.19L726.868 3257.4H1206.65L1446.53 3664.19L1206.65 4070.97H726.868Z" stroke="#C1C0C1" stroke-width="5.33333" stroke-miterlimit="10" stroke-linejoin="round"/>
<path d="M6.32764 4477.76H486.108L725.997 4884.55L486.108 5291.35" stroke="#C1C0C1" stroke-width="5.33333" stroke-miterlimit="10" stroke-linejoin="round"/>
<path d="M1447.41 3663.79L1207.52 3257L1447.41 2850.19H1927.18L2167.07 3257L1927.18 3663.79H1447.41Z" stroke="#C1C0C1" stroke-width="5.33333" stroke-miterlimit="10" stroke-linejoin="round"/>
<path d="M2167.95 4070.56L1928.06 3663.77L2167.95 3256.97H2647.74L2887.62 3663.77L2647.74 4070.56H2167.95Z" stroke="#C1C0C1" stroke-width="5.33335" stroke-miterlimit="10" stroke-linejoin="round"/>
<path d="M2167.95 3256.97L1928.06 2850.17L2167.95 2443.39H2647.74L2887.62 2850.17L2647.74 3256.97H2167.95Z" stroke="#C1C0C1" stroke-width="5.33335" stroke-miterlimit="10" stroke-linejoin="round"/>
<path d="M2888.5 3663.77L2648.59 3256.98L2888.5 2850.18H3368.28L3608.17 3256.98L3368.28 3663.77H2888.5Z" stroke="#C1C0C1" stroke-width="5.33334" stroke-miterlimit="10" stroke-linejoin="round"/>
<path d="M2888.5 4477.34L2648.59 4070.56L2888.5 3663.77H3368.28L3608.17 4070.56L3368.28 4477.34H2888.5Z" stroke="#C1C0C1" stroke-width="5.33334" stroke-miterlimit="10" stroke-linejoin="round"/>
<path d="M3609.01 4884.13L3369.13 4477.35L3609.01 4070.56H4088.81L4328.69 4477.35L4088.81 4884.13H3609.01Z" stroke="#C1C0C1" stroke-width="5.33332" stroke-miterlimit="10" stroke-linejoin="round"/>
<path d="M3609.01 4070.56L3369.13 3663.77L3609.01 3256.99H4088.81L4328.69 3663.77L4088.81 4070.56H3609.01Z" stroke="#C1C0C1" stroke-width="5.33332" stroke-miterlimit="10" stroke-linejoin="round"/>
<path d="M726.868 4884.13L486.977 4477.35L726.868 4070.56H1206.65L1446.53 4477.35L1206.65 4884.13H726.868Z" stroke="#C1C0C1" stroke-width="5.33333" stroke-miterlimit="10" stroke-linejoin="round"/>
<path d="M1447.41 5291.35L1207.52 4884.55L1447.41 4477.76H1927.19L2167.08 4884.55L1927.19 5291.35" stroke="#C1C0C1" stroke-width="5.33333" stroke-miterlimit="10" stroke-linejoin="round"/>
<path d="M1447.41 4477.35L1207.52 4070.56L1447.41 3663.77H1927.19L2167.08 4070.56L1927.19 4477.35H1447.41Z" stroke="#C1C0C1" stroke-width="5.33333" stroke-miterlimit="10" stroke-linejoin="round"/>
<path d="M2167.95 4884.13L1928.06 4477.34L2167.95 4070.56H2647.74L2887.62 4477.34L2647.74 4884.13H2167.95Z" stroke="#C1C0C1" stroke-width="5.33335" stroke-miterlimit="10" stroke-linejoin="round"/>
<path d="M1928.06 5291.35L2167.95 4884.54H2647.74L2887.62 5291.35" stroke="#C1C0C1" stroke-width="5.33335" stroke-miterlimit="10" stroke-linejoin="round"/>
<path d="M2888.5 5291.35L2648.59 4884.55L2888.5 4477.76H3368.28L3608.17 4884.55L3368.28 5291.35" stroke="#C1C0C1" stroke-width="5.33334" stroke-miterlimit="10" stroke-linejoin="round"/>
<path d="M3369.13 5291.35L3609.01 4884.55H4088.81L4328.69 5291.35" stroke="#C1C0C1" stroke-width="5.33332" stroke-miterlimit="10" stroke-linejoin="round"/>
<path d="M4328.14 1223.02L4088.26 816.25L4328.14 409.452H4807.93L5047.81 816.25L4807.93 1223.02H4328.14Z" stroke="#C1C0C1" stroke-width="5.33333" stroke-miterlimit="10" stroke-linejoin="round"/>
<path d="M5290.46 1629.85H5048.69L4808.77 1223.03L5048.69 816.252H5290.46" stroke="#C1C0C1" stroke-width="5.33333" stroke-miterlimit="10" stroke-linejoin="round"/>
<path d="M5290.46 816.251H5048.69L4808.77 409.47L5048.69 2.68943" stroke="#C1C0C1" stroke-width="5.33333" stroke-miterlimit="10" stroke-linejoin="round"/>
<path d="M4328.14 2850.18L4088.26 2443.4L4328.14 2036.61H4807.93L5047.81 2443.4L4807.93 2850.18H4328.14Z" stroke="#C1C0C1" stroke-width="5.33333" stroke-miterlimit="10" stroke-linejoin="round"/>
<path d="M4328.14 2036.61L4088.26 1629.81L4328.14 1223.02H4807.93L5047.81 1629.81L4807.93 2036.61H4328.14Z" stroke="#C1C0C1" stroke-width="5.33333" stroke-miterlimit="10" stroke-linejoin="round"/>
<path d="M5290.46 2443.41H5048.69L4808.77 2036.63L5048.69 1629.85H5290.46" stroke="#C1C0C1" stroke-width="5.33333" stroke-miterlimit="10" stroke-linejoin="round"/>
<path d="M5290.46 3256.99H5048.69L4808.77 2850.19L5048.69 2443.4H5290.46" stroke="#C1C0C1" stroke-width="5.33333" stroke-miterlimit="10" stroke-linejoin="round"/>
<path d="M4328.14 3663.77L4088.26 3256.98L4328.14 2850.18H4807.93L5047.81 3256.98L4807.93 3663.77H4328.14Z" stroke="#C1C0C1" stroke-width="5.33333" stroke-miterlimit="10" stroke-linejoin="round"/>
<path d="M4328.14 4477.35L4088.26 4070.56L4328.14 3663.77H4807.93L5047.81 4070.56L4807.93 4477.35H4328.14Z" stroke="#C1C0C1" stroke-width="5.33333" stroke-miterlimit="10" stroke-linejoin="round"/>
<path d="M5290.46 4884.13H5048.69L4808.77 4477.35L5048.69 4070.56H5290.46" stroke="#C1C0C1" stroke-width="5.33333" stroke-miterlimit="10" stroke-linejoin="round"/>
<path d="M5290.46 4070.56H5048.69L4808.77 3663.78L5048.69 3256.99H5290.46" stroke="#C1C0C1" stroke-width="5.33333" stroke-miterlimit="10" stroke-linejoin="round"/>
<path d="M4328.14 5291.35L4088.26 4884.55L4328.14 4477.76H4807.93L5047.81 4884.55L4807.93 5291.35" stroke="#C1C0C1" stroke-width="5.33333" stroke-miterlimit="10" stroke-linejoin="round"/>
<path d="M4808.77 5291.35L5048.69 4884.55H5290.46" stroke="#C1C0C1" stroke-width="5.33333" stroke-miterlimit="10" stroke-linejoin="round"/>
<path d="M724.84 1.36611L964.729 408.149L724.84 814.932H245.061L5.17139 408.149L245.061 1.36611" stroke="#ffffff" stroke-width="5.33333" stroke-miterlimit="10" stroke-linejoin="round"/>
<path d="M285.511 -0.0137092L265.287 34.2749H224.838L204.612 -0.0137092" fill="#ffffff"/>
<path d="M766.162 0.0185174L745.939 34.3071H705.488L685.265 0.0185174" fill="#ffffff"/>
<path d="M224.837 849.637L204.612 815.343L224.837 781.049H265.286L285.509 815.343L265.286 849.637H224.837Z" fill="#ffffff"/>
<path d="M705.486 849.637L685.261 815.343L705.486 781.049H745.938L766.16 815.343L745.938 849.637H705.486Z" fill="#ffffff"/>
<path d="M0 374.267H25.3963L45.6207 408.575L25.3963 442.853H0" fill="#ffffff"/>
<path d="M944.507 442.853L924.281 408.575L944.507 374.267H984.956L1005.18 408.575L984.956 442.853H944.507Z" fill="#ffffff"/>
<path d="M965.602 1222.14L725.71 815.353L965.602 408.561H1445.39L1685.26 815.353L1445.39 1222.14H965.602Z" stroke="#ffffff" stroke-width="5.33332" stroke-miterlimit="10" stroke-linejoin="round"/>
<path d="M1426.02 442.853L1405.8 408.575L1426.02 374.267H1466.48L1486.7 408.575L1466.48 442.853H1426.02Z" fill="#ffffff"/>
<path d="M945.377 1256.43L925.153 1222.13L945.377 1187.83H985.827L1006.05 1222.13L985.827 1256.43H945.377Z" fill="#ffffff"/>
<path d="M1426.03 1256.43L1405.8 1222.13L1426.03 1187.83H1466.48L1486.71 1222.13L1466.48 1256.43H1426.03Z" fill="#ffffff"/>
<path d="M1665.05 849.637L1644.83 815.343L1665.05 781.049H1705.49L1725.72 815.343L1705.49 849.637H1665.05Z" fill="#ffffff"/>
<path d="M1685.26 1.36559L1445.38 408.148H965.599L725.71 1.36559" stroke="#ffffff" stroke-width="5.33333" stroke-miterlimit="10" stroke-linejoin="round"/>
<path d="M1725.72 0.0185174L1705.49 34.3071H1665.06L1644.83 0.0185174" fill="#ffffff"/>
<path d="M2165.92 1.36611L2405.81 408.149L2165.92 814.932H1686.14L1446.25 408.149L1686.14 1.36611" stroke="#ffffff" stroke-width="5.33333" stroke-miterlimit="10" stroke-linejoin="round"/>
<path d="M2867.1 442.853L2846.88 408.575L2867.1 374.267H2907.56L2927.78 408.575L2907.56 442.853H2867.1Z" fill="#ffffff"/>
<path d="M3106.14 849.637L3085.91 815.343L3106.14 781.049H3146.58L3166.79 815.343L3146.58 849.637H3106.14Z" fill="#ffffff"/>
<path d="M3587.64 849.637L3567.44 815.343L3587.64 781.049H3628.08L3648.32 815.343L3628.08 849.637H3587.64Z" fill="#ffffff"/>
<path d="M3607 1.36611L3846.89 408.149L3607 814.932H3127.22L2887.33 408.149L3127.22 1.36611" stroke="#ffffff" stroke-width="5.33333" stroke-miterlimit="10" stroke-linejoin="round"/>
<path d="M3167.67 0.0185174L3147.46 34.3071H3107.01L3086.78 0.0185174" fill="#ffffff"/>
<path d="M3648.34 0.0185174L3628.11 34.3071H3587.65L3567.43 0.0185174" fill="#ffffff"/>
<path d="M3826.66 442.853L3806.44 408.575L3826.66 374.267H3867.12L3887.34 408.575L3867.12 442.853H3826.66Z" fill="#ffffff"/>
<path d="M2207.24 0.0185174L2187.02 34.3071H2146.58L2126.35 0.0185174" fill="#ffffff"/>
<path d="M2146.57 849.637L2126.35 815.343L2146.57 781.049H2187.01L2207.24 815.343L2187.01 849.637H2146.57Z" fill="#ffffff"/>
<path d="M2385.59 442.853L2365.36 408.575L2385.59 374.267H2426.04L2446.26 408.575L2426.04 442.853H2385.59Z" fill="#ffffff"/>
<path d="M1686.15 1628.9L1446.25 1222.12L1686.15 815.344H2165.92L2405.81 1222.12L2165.92 1628.9H1686.15Z" stroke="#ffffff" stroke-width="5.33332" stroke-miterlimit="10" stroke-linejoin="round"/>
<path d="M1665.92 1663.22L1645.69 1628.92L1665.92 1594.61H1706.37L1726.59 1628.92L1706.37 1663.22H1665.92Z" fill="#ffffff"/>
<path d="M2146.57 1663.22L2126.35 1628.92L2146.57 1594.61H2187.01L2207.24 1628.92L2187.01 1663.22H2146.57Z" fill="#ffffff"/>
<path d="M2385.59 1256.43L2365.36 1222.13L2385.59 1187.83H2426.04L2446.27 1222.13L2426.04 1256.43H2385.59Z" fill="#ffffff"/>
<path d="M2406.68 2035.69L2166.79 1628.91L2406.68 1222.13H2886.46L3126.34 1628.91L2886.46 2035.69H2406.68Z" stroke="#ffffff" stroke-width="5.33334" stroke-miterlimit="10" stroke-linejoin="round"/>
<path d="M2867.11 1256.43L2846.89 1222.13L2867.11 1187.83H2907.55L2927.8 1222.13L2907.55 1256.43H2867.11Z" fill="#ffffff"/>
<path d="M2386.45 2069.99L2366.24 2035.68L2386.45 2001.4H2426.92L2447.13 2035.68L2426.92 2069.99H2386.45Z" fill="#ffffff"/>
<path d="M2867.1 2069.99L2846.89 2035.68L2867.1 2001.4H2907.57L2927.78 2035.68L2907.57 2069.99H2867.1Z" fill="#ffffff"/>
<path d="M3106.14 1663.22L3085.9 1628.92L3106.14 1594.61H3146.57L3166.8 1628.92L3146.57 1663.22H3106.14Z" fill="#ffffff"/>
<path d="M2406.68 1222.14L2166.78 815.353L2406.68 408.561H2886.46L3126.35 815.353L2886.46 1222.14H2406.68Z" stroke="#ffffff" stroke-width="5.33332" stroke-miterlimit="10" stroke-linejoin="round"/>
<path d="M3127.22 1628.9L2887.34 1222.12L3127.22 815.344H3606.99L3846.89 1222.12L3606.99 1628.9H3127.22Z" stroke="#ffffff" stroke-width="5.33332" stroke-miterlimit="10" stroke-linejoin="round"/>
<path d="M3587.66 1663.22L3567.42 1628.92L3587.66 1594.61H3628.09L3648.33 1628.92L3628.09 1663.22H3587.66Z" fill="#ffffff"/>
<path d="M3826.66 1256.43L3806.44 1222.13L3826.66 1187.83H3867.13L3887.35 1222.13L3867.13 1256.43H3826.66Z" fill="#ffffff"/>
<path d="M4.30103 1222.13L244.191 1628.91L4.30103 2035.69" stroke="#ffffff" stroke-width="5.33334" stroke-miterlimit="10" stroke-linejoin="round"/>
<path d="M0 1187.83H25.3963L45.6209 1222.13L25.3963 1256.43H0" fill="#ffffff"/>
<path d="M0 2001.4H25.3963L45.6208 2035.68L25.3963 2069.99H0" fill="#ffffff"/>
<path d="M223.967 1663.22L203.741 1628.92L223.967 1594.61H264.417L284.641 1628.92L264.417 1663.22H223.967Z" fill="#ffffff"/>
<path d="M245.062 2442.47L5.17139 2035.7L245.062 1628.91H724.84L964.73 2035.7L724.84 2442.47H245.062Z" stroke="#ffffff" stroke-width="5.33332" stroke-miterlimit="10" stroke-linejoin="round"/>
<path d="M705.487 1663.22L685.263 1628.92L705.487 1594.61H745.937L766.16 1628.92L745.937 1663.22H705.487Z" fill="#ffffff"/>
<path d="M224.838 2476.77L204.613 2442.48L224.838 2408.18H265.287L285.512 2442.48L265.287 2476.77H224.838Z" fill="#ffffff"/>
<path d="M705.488 2476.77L685.265 2442.48L705.488 2408.18H745.939L766.164 2442.48L745.939 2476.77H705.488Z" fill="#ffffff"/>
<path d="M944.507 2069.99L924.283 2035.68L944.507 2001.4H984.958L1005.18 2035.68L984.958 2069.99H944.507Z" fill="#ffffff"/>
<path d="M245.061 1628.9L5.17139 1222.12L245.061 815.344H724.842L964.731 1222.12L724.842 1628.9H245.061Z" stroke="#ffffff" stroke-width="5.33332" stroke-miterlimit="10" stroke-linejoin="round"/>
<path d="M965.603 2035.69L725.712 1628.91L965.603 1222.13H1445.39L1685.27 1628.91L1445.39 2035.69H965.603Z" stroke="#ffffff" stroke-width="5.33334" stroke-miterlimit="10" stroke-linejoin="round"/>
<path d="M1426.03 2069.99L1405.8 2035.68L1426.03 2001.4H1466.48L1486.71 2035.68L1466.48 2069.99H1426.03Z" fill="#ffffff"/>
<path d="M965.603 2849.26L725.712 2442.48L965.603 2035.69H1445.39L1685.27 2442.48L1445.39 2849.26H965.603Z" stroke="#ffffff" stroke-width="5.33333" stroke-miterlimit="10" stroke-linejoin="round"/>
<path d="M945.382 2883.55L925.156 2849.26L945.382 2814.96H985.831L1006.06 2849.26L985.831 2883.55H945.382Z" fill="#ffffff"/>
<path d="M1426.03 2883.55L1405.81 2849.26L1426.03 2814.96H1466.49L1486.71 2849.26L1466.49 2883.55H1426.03Z" fill="#ffffff"/>
<path d="M1665.06 2476.77L1644.83 2442.48L1665.06 2408.18H1705.5L1725.72 2442.48L1705.5 2476.77H1665.06Z" fill="#ffffff"/>
<path d="M1686.15 3256.05L1446.25 2849.27L1686.15 2442.48H2165.92L2405.81 2849.27L2165.92 3256.05H1686.15Z" stroke="#ffffff" stroke-width="5.33333" stroke-miterlimit="10" stroke-linejoin="round"/>
<path d="M2146.57 2476.77L2126.35 2442.48L2146.57 2408.18H2187.03L2207.24 2442.48L2187.03 2476.77H2146.57Z" fill="#ffffff"/>
<path d="M1665.92 3290.35L1645.69 3256.05L1665.92 3221.76H1706.37L1726.59 3256.05L1706.37 3290.35H1665.92Z" fill="#ffffff"/>
<path d="M2146.57 3290.35L2126.34 3256.05L2146.57 3221.76H2187.01L2207.24 3256.05L2187.01 3290.35H2146.57Z" fill="#ffffff"/>
<path d="M2385.6 2883.55L2365.37 2849.26L2385.6 2814.96H2426.05L2446.28 2849.26L2426.05 2883.55H2385.6Z" fill="#ffffff"/>
<path d="M1686.15 2442.47L1446.25 2035.7L1686.15 1628.91H2165.92L2405.8 2035.7L2165.92 2442.47H1686.15Z" stroke="#ffffff" stroke-width="5.33332" stroke-miterlimit="10" stroke-linejoin="round"/>
<path d="M2406.68 2849.26L2166.78 2442.48L2406.68 2035.69H2886.46L3126.34 2442.48L2886.46 2849.26H2406.68Z" stroke="#ffffff" stroke-width="5.33333" stroke-miterlimit="10" stroke-linejoin="round"/>
<path d="M2867.11 2883.56L2846.88 2849.27L2867.11 2814.98H2907.56L2927.78 2849.27L2907.56 2883.56H2867.11Z" fill="#ffffff"/>
<path d="M3106.13 2476.76L3085.91 2442.47L3106.13 2408.18H3146.58L3166.81 2442.47L3146.58 2476.76H3106.13Z" fill="#ffffff"/>
<path d="M3847.76 1221.71L3607.88 814.944L3847.76 408.148H4327.53L4567.44 814.944L4327.53 1221.71H3847.76Z" stroke="#ffffff" stroke-width="5.33332" stroke-miterlimit="10" stroke-linejoin="round"/>
<path d="M4308.18 442.445L4287.96 408.134L4308.18 373.853H4348.65L4368.87 408.134L4348.65 442.445H4308.18Z" fill="#ffffff"/>
<path d="M4308.17 1256L4287.94 1221.72L4308.17 1187.42H4348.62L4368.86 1221.72L4348.62 1256H4308.17Z" fill="#ffffff"/>
<path d="M4547.21 849.227L4526.97 814.937L4547.21 780.618H4587.64L4607.88 814.937L4587.64 849.227H4547.21Z" fill="#ffffff"/>
<path d="M4568.33 1628.48L4328.42 1221.69L4568.33 814.909H5048.07L5287.98 1221.69L5048.07 1628.48H4568.33Z" stroke="#ffffff" stroke-width="5.33333" stroke-miterlimit="10" stroke-linejoin="round"/>
<path d="M5028.74 849.208L5008.5 814.924L5028.74 780.641H5069.17L5089.4 814.924L5069.17 849.208H5028.74Z" fill="#ffffff"/>
<path d="M4548.07 1662.81L4527.86 1628.51L4548.07 1594.21H4588.53L4608.75 1628.51L4588.53 1662.81H4548.07Z" fill="#ffffff"/>
<path d="M5028.74 1662.79L5008.5 1628.48L5028.74 1594.2H5069.17L5089.4 1628.48L5069.17 1662.79H5028.74Z" fill="#ffffff"/>
<path d="M5290.46 1256.01H5267.74L5247.52 1221.73L5267.74 1187.43H5290.46" fill="#ffffff"/>
<path d="M5048.06 1.36611L5287.95 408.149L5048.06 814.932H4568.3L4328.4 408.149L4568.3 1.36611" stroke="#ffffff" stroke-width="5.33333" stroke-miterlimit="10" stroke-linejoin="round"/>
<path d="M4608.78 0.0185174L4588.55 34.3071H4548.1L4527.87 0.0185174" fill="#ffffff"/>
<path d="M5089.41 0.0185174L5069.18 34.3071H5028.76L5008.53 0.0185174" fill="#ffffff"/>
<path d="M5290.46 442.447H5267.74L5247.52 408.14L5267.74 373.866H5290.46" fill="#ffffff"/>
<path d="M5291.33 2069.58H5268.64L5248.38 2035.28L5268.64 2001H5291.33" fill="#ffffff"/>
<path d="M3127.21 2442.08L2887.34 2035.28L3127.21 1628.5H3606.99L3846.89 2035.28L3606.99 2442.08H3127.21Z" stroke="#ffffff" stroke-width="5.33332" stroke-miterlimit="10" stroke-linejoin="round"/>
<path d="M3587.65 2476.38L3567.42 2442.07L3587.65 2407.78H3628.08L3648.31 2442.07L3628.08 2476.38H3587.65Z" fill="#ffffff"/>
<path d="M3826.68 2069.58L3806.46 2035.28L3826.68 2000.99H3867.13L3887.35 2035.28L3867.13 2069.58H3826.68Z" fill="#ffffff"/>
<path d="M3847.77 2848.86L3607.88 2442.08L3847.77 2035.27H4327.55L4567.43 2442.08L4327.55 2848.86H3847.77Z" stroke="#ffffff" stroke-width="5.33333" stroke-miterlimit="10" stroke-linejoin="round"/>
<path d="M4308.17 2069.58L4287.94 2035.3L4308.17 2000.99H4348.62L4368.86 2035.3L4348.62 2069.58H4308.17Z" fill="#ffffff"/>
<path d="M3827.54 2883.14L3807.33 2848.84L3827.54 2814.56H3868L3888.22 2848.84L3868 2883.14H3827.54Z" fill="#ffffff"/>
<path d="M4308.17 2883.15L4287.94 2848.86L4308.17 2814.57H4348.62L4368.86 2848.86L4348.62 2883.15H4308.17Z" fill="#ffffff"/>
<path d="M4547.21 2476.36L4526.97 2442.06L4547.21 2407.77H4587.64L4607.88 2442.06L4587.64 2476.36H4547.21Z" fill="#ffffff"/>
<path d="M3847.77 2035.27L3607.88 1628.49L3847.77 1221.71H4327.55L4567.43 1628.49L4327.55 2035.27H3847.77Z" stroke="#ffffff" stroke-width="5.33333" stroke-miterlimit="10" stroke-linejoin="round"/>
<path d="M4568.33 2442.06L4328.42 2035.26L4568.33 1628.48H5048.07L5287.98 2035.26L5048.07 2442.06H4568.33Z" stroke="#ffffff" stroke-width="5.33333" stroke-miterlimit="10" stroke-linejoin="round"/>
<path d="M5028.74 2476.36L5008.5 2442.07L5028.74 2407.77H5069.17L5089.4 2442.07L5069.17 2476.36H5028.74Z" fill="#ffffff"/>
<path d="M4568.33 3255.64L4328.42 2848.85L4568.33 2442.06H5048.07L5287.98 2848.85L5048.07 3255.64H4568.33Z" stroke="#ffffff" stroke-width="5.33333" stroke-miterlimit="10" stroke-linejoin="round"/>
<path d="M4548.07 3289.94L4527.86 3255.65L4548.07 3221.35H4588.53L4608.75 3255.65L4588.53 3289.94H4548.07Z" fill="#ffffff"/>
<path d="M5028.74 3289.93L5008.5 3255.64L5028.74 3221.34H5069.17L5089.4 3255.64L5069.17 3289.93H5028.74Z" fill="#ffffff"/>
<path d="M5290.46 2883.15H5267.74L5247.52 2848.86L5267.74 2814.56H5290.46" fill="#ffffff"/>
<path d="M5291.33 3696.72H5268.64L5248.38 3662.43L5268.64 3628.14H5291.33" fill="#ffffff"/>
<path d="M4.30151 2849.26L244.194 3256.05L4.30151 3662.83" stroke="#ffffff" stroke-width="5.33336" stroke-miterlimit="10" stroke-linejoin="round"/>
<path d="M0 2814.96H25.3964L45.6216 2849.26L25.3964 2883.55H0" fill="#ffffff"/>
<path d="M0 3628.55H25.3964L45.6213 3662.84L25.3964 3697.13H0" fill="#ffffff"/>
<path d="M223.967 3290.35L203.741 3256.05L223.967 3221.76H264.416L284.641 3256.05L264.416 3290.35H223.967Z" fill="#ffffff"/>
<path d="M4.30151 2035.69L244.193 2442.48L4.30151 2849.26" stroke="#ffffff" stroke-width="5.33333" stroke-miterlimit="10" stroke-linejoin="round"/>
<path d="M245.061 3256.05L5.17188 2849.27L245.061 2442.48H724.842L964.734 2849.27L724.842 3256.05H245.061Z" stroke="#ffffff" stroke-width="5.33333" stroke-miterlimit="10" stroke-linejoin="round"/>
<path d="M705.488 3290.35L685.263 3256.05L705.488 3221.76H745.937L766.161 3256.05L745.937 3290.35H705.488Z" fill="#ffffff"/>
<path d="M245.061 4069.63L5.17188 3662.84L245.061 3256.05H724.841L964.732 3662.84L724.841 4069.63H245.061Z" stroke="#ffffff" stroke-width="5.33333" stroke-miterlimit="10" stroke-linejoin="round"/>
<path d="M224.837 4103.92L204.612 4069.63L224.837 4035.33H265.287L285.511 4069.63L265.287 4103.92H224.837" fill="#ffffff"/>
<path d="M705.488 4103.92L685.263 4069.63L705.488 4035.33H745.937L766.161 4069.63L745.937 4103.92H705.488Z" fill="#ffffff"/>
<path d="M944.507 3697.13L924.283 3662.84L944.507 3628.55H984.956L1005.18 3662.84L984.956 3697.13H944.507Z" fill="#ffffff"/>
<path d="M965.603 4476.41L725.712 4069.63L965.603 3662.84H1445.39L1685.27 4069.63L1445.39 4476.41H965.603Z" stroke="#ffffff" stroke-width="5.33333" stroke-miterlimit="10" stroke-linejoin="round"/>
<path d="M1426.03 3697.13L1405.8 3662.84L1426.03 3628.55H1466.48L1486.71 3662.84L1466.48 3697.13H1426.03Z" fill="#ffffff"/>
<path d="M945.377 4510.71L925.153 4476.41L945.377 4442.12H985.827L1006.05 4476.41L985.827 4510.71H945.377Z" fill="#ffffff"/>
<path d="M1426.03 4510.71L1405.8 4476.41L1426.03 4442.12H1466.48L1486.71 4476.41L1466.48 4510.71H1426.03Z" fill="#ffffff"/>
<path d="M1665.05 4103.92L1644.83 4069.63L1665.05 4035.33H1705.49L1725.72 4069.63L1705.49 4103.92H1665.05Z" fill="#ffffff"/>
<path d="M965.607 3662.83L725.715 3256.05L965.607 2849.26H1445.39L1685.27 3256.05L1445.39 3662.83H965.607Z" stroke="#ffffff" stroke-width="5.33336" stroke-miterlimit="10" stroke-linejoin="round"/>
<path d="M1686.15 4069.63L1446.25 3662.83L1686.15 3256.05H2165.93L2405.81 3662.83L2165.93 4069.63H1686.15Z" stroke="#ffffff" stroke-width="5.33334" stroke-miterlimit="10" stroke-linejoin="round"/>
<path d="M2146.57 4103.92L2126.34 4069.63L2146.57 4035.33H2187.01L2207.24 4069.63L2187.01 4103.92H2146.57Z" fill="#ffffff"/>
<path d="M2385.58 3697.13L2365.35 3662.84L2385.58 3628.55H2426.03L2446.26 3662.84L2426.03 3697.13H2385.58Z" fill="#ffffff"/>
<path d="M4.30151 3662.84L244.192 4069.63L4.30151 4476.41" stroke="#ffffff" stroke-width="5.33333" stroke-miterlimit="10" stroke-linejoin="round"/>
<path d="M0 4442.12H25.3964L45.6213 4476.41L25.3964 4510.71H0" fill="#ffffff"/>
<path d="M4.30151 4476.41L244.192 4883.2L4.30151 5289.99" stroke="#ffffff" stroke-width="5.33333" stroke-miterlimit="10" stroke-linejoin="round"/>
<path d="M25.3964 5257.03H0V5291.32H45.6213L25.3964 5257.03Z" fill="#ffffff"/>
<path d="M223.967 4917.49L203.741 4883.2L223.967 4848.91H264.416L284.641 4883.2L264.416 4917.49H223.967Z" fill="#ffffff"/>
<path d="M5.17188 5289.99L245.061 4883.2H724.841L964.732 5289.99" stroke="#ffffff" stroke-width="5.33333" stroke-miterlimit="10" stroke-linejoin="round"/>
<path d="M705.488 4917.49L685.263 4883.2L705.488 4848.91H745.937L766.161 4883.2L745.937 4917.49H705.488Z" fill="#ffffff"/>
<path d="M984.956 5257.03H944.507L924.283 5291.32H1005.18L984.956 5257.03Z" fill="#ffffff"/>
<path d="M245.061 4883.2L5.17188 4476.41L245.061 4069.63H724.841L964.732 4476.41L724.841 4883.2H245.061Z" stroke="#ffffff" stroke-width="5.33333" stroke-miterlimit="10" stroke-linejoin="round"/>
<path d="M965.603 5289.99L725.712 4883.2L965.603 4476.41H1445.39L1685.27 4883.2L1445.39 5289.99" stroke="#ffffff" stroke-width="5.33333" stroke-miterlimit="10" stroke-linejoin="round"/>
<path d="M1466.48 5257.03H1426.03L1405.8 5291.32H1486.71L1466.48 5257.03Z" fill="#ffffff"/>
<path d="M1665.05 4917.49L1644.83 4883.2L1665.05 4848.91H1705.49L1725.72 4883.2L1705.49 4917.49H1665.05Z" fill="#ffffff"/>
<path d="M2406.67 3662.43L2166.78 3255.64L2406.67 2848.85H2886.46L3126.34 3255.64L2886.46 3662.43H2406.67Z" stroke="#ffffff" stroke-width="5.33332" stroke-miterlimit="10" stroke-linejoin="round"/>
<path d="M2867.11 3696.72L2846.88 3662.43L2867.11 3628.13H2907.56L2927.78 3662.43L2907.56 3696.72H2867.11Z" fill="#ffffff"/>
<path d="M3106.13 3289.93L3085.91 3255.64L3106.13 3221.35H3146.58L3166.81 3255.64L3146.58 3289.93H3106.13Z" fill="#ffffff"/>
<path d="M3127.21 4069.22L2887.34 3662.43L3127.21 3255.64H3606.99L3846.89 3662.43L3606.99 4069.22H3127.21Z" stroke="#ffffff" stroke-width="5.33332" stroke-miterlimit="10" stroke-linejoin="round"/>
<path d="M3587.65 3289.94L3567.42 3255.65L3587.65 3221.35H3628.08L3648.31 3255.65L3628.08 3289.94H3587.65Z" fill="#ffffff"/>
<path d="M3107 4103.5L3086.77 4069.21L3107 4034.92H3147.47L3167.68 4069.21L3147.47 4103.5H3107Z" fill="#ffffff"/>
<path d="M3587.65 4103.51L3567.42 4069.22L3587.65 4034.92H3628.08L3648.31 4069.22L3628.08 4103.51H3587.65Z" fill="#ffffff"/>
<path d="M3826.68 3696.72L3806.46 3662.42L3826.68 3628.13H3867.13L3887.35 3662.42L3867.13 3696.72H3826.68Z" fill="#ffffff"/>
<path d="M3127.21 3255.64L2887.34 2848.86L3127.21 2442.08H3606.99L3846.89 2848.86L3606.99 3255.64H3127.21Z" stroke="#ffffff" stroke-width="5.33332" stroke-miterlimit="10" stroke-linejoin="round"/>
<path d="M3847.77 3662.43L3607.88 3255.64L3847.77 2848.86H4327.55L4567.43 3255.64L4327.55 3662.43H3847.77Z" stroke="#ffffff" stroke-width="5.33333" stroke-miterlimit="10" stroke-linejoin="round"/>
<path d="M4308.17 3696.72L4287.94 3662.43L4308.17 3628.14H4348.62L4368.86 3662.43L4348.62 3696.72H4308.17Z" fill="#ffffff"/>
<path d="M3847.77 4476L3607.88 4069.22L3847.77 3662.43H4327.55L4567.43 4069.22L4327.55 4476H3847.77Z" stroke="#ffffff" stroke-width="5.33333" stroke-miterlimit="10" stroke-linejoin="round"/>
<path d="M3827.54 4510.29L3807.33 4476L3827.54 4441.7H3868L3888.22 4476L3868 4510.29H3827.54Z" fill="#ffffff"/>
<path d="M4308.17 4510.3L4287.94 4476L4308.17 4441.71H4348.62L4368.86 4476L4348.62 4510.3H4308.17Z" fill="#ffffff"/>
<path d="M4547.21 4103.51L4526.97 4069.21L4547.21 4034.92H4587.64L4607.88 4069.21L4587.64 4103.51H4547.21Z" fill="#ffffff"/>
<path d="M4568.33 4882.79L4328.42 4476L4568.33 4069.21H5048.07L5287.98 4476L5048.07 4882.79H4568.33Z" stroke="#ffffff" stroke-width="5.33333" stroke-miterlimit="10" stroke-linejoin="round"/>
<path d="M5028.74 4103.51L5008.5 4069.21L5028.74 4034.92H5069.17L5089.4 4069.21L5069.17 4103.51H5028.74Z" fill="#ffffff"/>
<path d="M4548.07 4917.08L4527.86 4882.79L4548.07 4848.49H4588.53L4608.75 4882.79L4588.53 4917.08H4548.07Z" fill="#ffffff"/>
<path d="M5028.74 4917.08L5008.5 4882.79L5028.74 4848.49H5069.17L5089.4 4882.79L5069.17 4917.08H5028.74Z" fill="#ffffff"/>
<path d="M5290.46 4510.29H5267.74L5247.52 4476L5267.74 4441.71H5290.46" fill="#ffffff"/>
<path d="M4568.33 4069.21L4328.42 3662.42L4568.33 3255.64H5048.07L5287.98 3662.42L5048.07 4069.21H4568.33Z" stroke="#ffffff" stroke-width="5.33333" stroke-miterlimit="10" stroke-linejoin="round"/>
<path d="M1686.15 4882.79L1446.25 4476L1686.15 4069.21H2165.93L2405.81 4476L2165.93 4882.79H1686.15Z" stroke="#ffffff" stroke-width="5.33334" stroke-miterlimit="10" stroke-linejoin="round"/>
<path d="M2146.57 4917.08L2126.34 4882.79L2146.57 4848.49H2187.01L2207.24 4882.79L2187.01 4917.08H2146.57Z" fill="#ffffff"/>
<path d="M2385.58 4510.3L2365.35 4476L2385.58 4441.71H2426.03L2446.26 4476L2426.03 4510.3H2385.58Z" fill="#ffffff"/>
<path d="M2406.67 5289.99L2166.78 4883.2L2406.67 4476.42H2886.46L3126.34 4883.2L2886.46 5289.99" stroke="#ffffff" stroke-width="5.33332" stroke-miterlimit="10" stroke-linejoin="round"/>
<path d="M2867.11 4510.29L2846.88 4476L2867.11 4441.71H2907.56L2927.78 4476L2907.56 4510.29H2867.11Z" fill="#ffffff"/>
<path d="M2426.91 5257.03H2386.45L2366.24 5291.32H2447.13L2426.91 5257.03Z" fill="#ffffff"/>
<path d="M2907.56 5257.03H2867.11L2846.88 5291.32H2927.78L2907.56 5257.03Z" fill="#ffffff"/>
<path d="M3106.13 4917.08L3085.91 4882.79L3106.13 4848.49H3146.58L3166.81 4882.79L3146.58 4917.08H3106.13" fill="#ffffff"/>
<path d="M2406.67 4476L2166.78 4069.22L2406.67 3662.43H2886.46L3126.34 4069.22L2886.46 4476H2406.67Z" stroke="#ffffff" stroke-width="5.33332" stroke-miterlimit="10" stroke-linejoin="round"/>
<path d="M3127.21 4882.79L2887.34 4476L3127.21 4069.22H3606.99L3846.89 4476L3606.99 4882.79H3127.21Z" stroke="#ffffff" stroke-width="5.33332" stroke-miterlimit="10" stroke-linejoin="round"/>
<path d="M3587.65 4917.08L3567.42 4882.79L3587.65 4848.49H3628.08L3648.31 4882.79L3628.08 4917.08H3587.65Z" fill="#ffffff"/>
<path d="M2887.34 5289.99L3127.21 4883.2H3606.99L3846.89 5289.99" stroke="#ffffff" stroke-width="5.33332" stroke-miterlimit="10" stroke-linejoin="round"/>
<path d="M3867.13 5257.03H3826.68L3806.46 5291.32H3887.35L3867.13 5257.03Z" fill="#ffffff"/>
<path d="M4348.62 5257.03H4308.17L4287.94 5291.32H4368.86L4348.62 5257.03Z" fill="#ffffff"/>
<path d="M3847.77 5289.99L3607.88 4883.2L3847.77 4476.41H4327.55L4567.43 4883.2L4327.55 5289.99" stroke="#ffffff" stroke-width="5.33333" stroke-miterlimit="10" stroke-linejoin="round"/>
<path d="M4328.42 5289.99L4568.33 4883.2H5048.07L5287.98 5289.99" stroke="#ffffff" stroke-width="5.33333" stroke-miterlimit="10" stroke-linejoin="round"/>
<path d="M5290.46 5257.03H5267.74L5247.52 5291.32H5290.46" fill="#ffffff"/>
</g>
<defs>
</defs>
</svg>
