<?xml version="1.0" encoding="UTF-8" standalone="no"?>
<svg
   xmlns:dc="http://purl.org/dc/elements/1.1/"
   xmlns:cc="http://creativecommons.org/ns#"
   xmlns:rdf="http://www.w3.org/1999/02/22-rdf-syntax-ns#"
   xmlns:svg="http://www.w3.org/2000/svg"
   xmlns="http://www.w3.org/2000/svg"
   viewBox="0 0 666.66669 666.66669"
   height="666.66669"
   width="666.66669"
   xml:space="preserve"
   id="svg2"
   version="1.1"><metadata
     id="metadata8"><rdf:RDF><cc:Work
         rdf:about=""><dc:format>image/svg+xml</dc:format><dc:type
           rdf:resource="http://purl.org/dc/dcmitype/StillImage" /></cc:Work></rdf:RDF></metadata><defs
     id="defs6"><clipPath
       id="clipPath18"
       clipPathUnits="userSpaceOnUse"><path
         id="path16"
         d="M 0,500 H 500 V 0 H 0 Z" /></clipPath><clipPath
       id="clipPath30"
       clipPathUnits="userSpaceOnUse"><path
         id="path28"
         d="M 0,500 H 500 V 0 H 0 Z" /></clipPath><clipPath
       id="clipPath76"
       clipPathUnits="userSpaceOnUse"><path
         id="path74"
         d="m 380.291,321.421 h 25.024 v -24.367 h -25.024 z" /></clipPath><clipPath
       id="clipPath96"
       clipPathUnits="userSpaceOnUse"><path
         id="path94"
         d="m 281.596,310.509 h 109.88 V 193.915 h -109.88 z" /></clipPath><clipPath
       id="clipPath116"
       clipPathUnits="userSpaceOnUse"><path
         id="path114"
         d="m 277.237,201.125 h 15.739 v -15.393 h -15.739 z" /></clipPath><clipPath
       id="clipPath136"
       clipPathUnits="userSpaceOnUse"><path
         id="path134"
         d="m 265.476,197.172 h 15.513 v -15.887 h -15.513 z" /></clipPath><clipPath
       id="clipPath156"
       clipPathUnits="userSpaceOnUse"><path
         id="path154"
         d="m 292.501,300.019 h 90.728 V 204.72 h -90.728 z" /></clipPath><clipPath
       id="clipPath176"
       clipPathUnits="userSpaceOnUse"><path
         id="path174"
         d="M 215.931,95.2535 H 351.896 V 84.4864 H 215.931 Z" /></clipPath><clipPath
       id="clipPath194"
       clipPathUnits="userSpaceOnUse"><path
         id="path192"
         d="M 245.26,259.465 H 360.362 V 134.456 H 245.26 Z" /></clipPath><clipPath
       id="clipPath214"
       clipPathUnits="userSpaceOnUse"><path
         id="path212"
         d="m 220.139,172.419 h 36.513 v -28.224 h -36.513 z" /></clipPath><clipPath
       id="clipPath234"
       clipPathUnits="userSpaceOnUse"><path
         id="path232"
         d="m 216.426,184.681 h 53.219 v -39.366 h -53.219 z" /></clipPath><clipPath
       id="clipPath258"
       clipPathUnits="userSpaceOnUse"><path
         id="path256"
         d="m 346.48,273.205 h 34.02 v -35.55 h -34.02 z" /></clipPath><clipPath
       id="clipPath282"
       clipPathUnits="userSpaceOnUse"><path
         id="path280"
         d="m 283.91,149.155 h 13.58 v -53.57 h -13.58 z" /></clipPath><clipPath
       id="clipPath334"
       clipPathUnits="userSpaceOnUse"><path
         id="path332"
         d="m 127.634,279.47 h 68.189 V 86.7556 h -68.189 z" /></clipPath><clipPath
       id="clipPath354"
       clipPathUnits="userSpaceOnUse"><path
         id="path352"
         d="m 112.154,288.729 h 44.357 v -9.259 h -44.357 z" /></clipPath><clipPath
       id="clipPath370"
       clipPathUnits="userSpaceOnUse"><path
         id="path368"
         d="m 112.559,155.335 h 7.292 v -7.292 h -7.292 z" /></clipPath><clipPath
       id="clipPath390"
       clipPathUnits="userSpaceOnUse"><path
         id="path388"
         d="m 129.636,207.353 h 13.417 v -13.417 h -13.417 z" /></clipPath><clipPath
       id="clipPath422"
       clipPathUnits="userSpaceOnUse"><path
         id="path420"
         d="M 53.07,72.655 H 451.22 V 59.375 H 53.07 Z" /></clipPath><clipPath
       id="clipPath442"
       clipPathUnits="userSpaceOnUse"><path
         id="path440"
         d="m 216.826,281.844 h 34.07 v -51.16 h -34.07 z" /></clipPath><clipPath
       id="clipPath466"
       clipPathUnits="userSpaceOnUse"><path
         id="path464"
         d="m 193.877,263.804 h 22.079 v -33.12 h -22.079 z" /></clipPath></defs><g
     transform="matrix(1.3333333,0,0,-1.3333333,0,666.66667)"
     id="g10"><g
       id="g12"><g
         clip-path="url(#clipPath18)"
         id="g14"><g
           transform="translate(412.4313,74.8024)"
           id="g20"><path
             id="path22"
             style="fill:#c9e4fc;fill-opacity:1;fill-rule:nonzero;stroke:none"
             d="m 0,0 h -329.25 v 231.696 c 0,76.009 61.617,137.625 137.625,137.625 h 54 C -61.616,369.321 0,307.705 0,231.696 Z" /></g></g></g><g
       id="g24"><g
         clip-path="url(#clipPath30)"
         id="g26"><g
           transform="translate(371.0319,213.4811)"
           id="g32"><path
             id="path34"
             style="fill:#a7d49b;fill-opacity:1;fill-rule:nonzero;stroke:none"
             d="m 0,0 v -90.911 c 0,-8.348 -6.76,-15.107 -15.097,-15.107 h -0.559 c -8.337,0 -15.096,6.759 -15.096,15.107 V 0 Z" /></g><g
           transform="translate(371.8512,213.4772)"
           id="g36"><path
             id="path38"
             style="fill:#a7d49b;fill-opacity:1;fill-rule:nonzero;stroke:none"
             d="m 0,0 h -32.446 c -1.325,0 -2.401,1.074 -2.401,2.399 0,1.326 1.076,2.4 2.401,2.4 L 0,4.799 c 1.325,0 2.399,-1.074 2.399,-2.4 C 2.399,1.074 1.325,0 0,0" /></g><g
           transform="translate(418.152,213.4811)"
           id="g40"><path
             id="path42"
             style="fill:#a7d49b;fill-opacity:1;fill-rule:nonzero;stroke:none"
             d="m 0,0 v -90.911 c 0,-8.348 -6.759,-15.107 -15.106,-15.107 h -0.55 c -8.347,0 -15.106,6.759 -15.106,15.107 V 0 Z" /></g><g
           transform="translate(418.9674,213.4772)"
           id="g44"><path
             id="path46"
             style="fill:#a7d49b;fill-opacity:1;fill-rule:nonzero;stroke:none"
             d="m 0,0 h -32.447 c -1.325,0 -2.4,1.074 -2.4,2.399 0,1.326 1.075,2.4 2.4,2.4 L 0,4.799 c 1.325,0 2.399,-1.074 2.399,-2.4 C 2.399,1.074 1.325,0 0,0" /></g><g
           transform="translate(411.7418,154.0368)"
           id="g48"><path
             id="path50"
             style="fill:#81b075;fill-opacity:1;fill-rule:nonzero;stroke:none"
             d="m 0,0 c 0,-3.795 -3.076,-6.871 -6.871,-6.871 -3.795,0 -6.871,3.076 -6.871,6.871 0,3.795 3.076,6.871 6.871,6.871 C -3.076,6.871 0,3.795 0,0" /></g><g
           transform="translate(410.4332,174.028)"
           id="g52"><path
             id="path54"
             style="fill:#81b075;fill-opacity:1;fill-rule:nonzero;stroke:none"
             d="m 0,0 c 0,-1.536 -1.245,-2.781 -2.781,-2.781 -1.536,0 -2.781,1.245 -2.781,2.781 0,1.536 1.245,2.781 2.781,2.781 C -1.245,2.781 0,1.536 0,0" /></g><g
           transform="translate(400.3717,168.1061)"
           id="g56"><path
             id="path58"
             style="fill:#81b075;fill-opacity:1;fill-rule:nonzero;stroke:none"
             d="m 0,0 c 0,-1.31 -1.062,-2.372 -2.372,-2.372 -1.311,0 -2.372,1.062 -2.372,2.372 0,1.311 1.061,2.372 2.372,2.372 C -1.062,2.372 0,1.311 0,0" /></g><path
           id="path60"
           style="fill:#c9630c;fill-opacity:1;fill-rule:nonzero;stroke:none"
           d="M 447.123,180.653 H 311.248 v 12.643 h 135.875 z" /><g
           transform="translate(436.9733,180.653)"
           id="g62"><path
             id="path64"
             style="fill:#d1820c;fill-opacity:1;fill-rule:nonzero;stroke:none"
             d="M 0,0 V -94.668 H -116.146 V 0 h 6.209 V -82.127 H -6.209 l 0,82.127 z" /></g><g
           transform="translate(403.191,299.506)"
           id="g66"><path
             id="path68"
             style="fill:#223766;fill-opacity:1;fill-rule:nonzero;stroke:none"
             d="m 0,0 v 0 c 2.197,2.355 2.068,6.046 -0.286,8.243 l -26.023,24.274 c -2.355,2.196 -6.045,2.068 -8.243,-0.287 -2.197,-2.356 -2.068,-6.046 0.287,-8.244 L -8.243,-0.287 C -5.888,-2.484 -2.197,-2.355 0,0" /></g><g
           id="g70"><g
             id="g72" /><g
             id="g84"><g
               style="opacity:0.5"
               id="g82"
               clip-path="url(#clipPath76)"><g
                 id="g80"
                 transform="translate(403.191,299.506)"><path
                   id="path78"
                   style="fill:#223766;fill-opacity:1;fill-rule:nonzero;stroke:none"
                   d="M 0,0 V 0 C 2.197,2.355 2.785,5.378 1.313,6.75 L -14.943,21.915 -22.9,13.385 -6.643,-1.779 C -5.171,-3.152 -2.197,-2.355 0,0" /></g></g></g></g><g
           transform="translate(391.4762,302.4577)"
           id="g86"><path
             id="path88"
             style="fill:#223766;fill-opacity:1;fill-rule:nonzero;stroke:none"
             d="m 0,0 -101.248,-108.543 -19.079,17.797 101.248,108.543 z" /></g><g
           id="g90"><g
             id="g92" /><g
             id="g104"><g
               style="opacity:0.5"
               id="g102"
               clip-path="url(#clipPath96)"><g
                 id="g100"
                 transform="translate(391.4762,302.4577)"><path
                   id="path98"
                   style="fill:#223766;fill-opacity:1;fill-rule:nonzero;stroke:none"
                   d="m 0,0 -101.248,-108.543 -8.632,8.052 L -8.631,8.051 Z" /></g></g></g></g><g
           transform="translate(288.5797,185.9831)"
           id="g106"><path
             id="path108"
             style="fill:#94b3f1;fill-opacity:1;fill-rule:nonzero;stroke:none"
             d="m 0,0 4.185,4.486 c 0.296,0.32 0.28,0.819 -0.039,1.117 l -24.074,22.456 c -0.319,0.296 -0.818,0.279 -1.116,-0.039 l -4.185,-4.487 c -0.297,-0.319 -0.28,-0.818 0.04,-1.116 L -1.116,-0.038 C -0.798,-0.336 -0.298,-0.318 0,0" /></g><g
           id="g110"><g
             id="g112" /><g
             id="g124"><g
               style="opacity:0.5"
               id="g122"
               clip-path="url(#clipPath116)"><g
                 id="g120"
                 transform="translate(288.5797,185.9831)"><path
                   id="path118"
                   style="fill:#94b4f0;fill-opacity:1;fill-rule:nonzero;stroke:none"
                   d="m 0,0 4.185,4.486 c 0.296,0.32 0.28,0.819 -0.039,1.117 L -6.081,15.142 -11.343,9.501 -1.116,-0.038 C -0.798,-0.336 -0.298,-0.318 0,0" /></g></g></g></g><g
           transform="translate(280.9889,191.9831)"
           id="g126"><path
             id="path128"
             style="fill:#223766;fill-opacity:1;fill-rule:nonzero;stroke:none"
             d="m 0,0 -9.672,-10.369 c -0.39,-0.417 -1.044,-0.441 -1.462,-0.051 l -9.613,8.967 c -0.417,0.39 -0.44,1.044 -0.051,1.462 l 9.673,10.369 z" /></g><g
           id="g130"><g
             id="g132" /><g
             id="g144"><g
               style="opacity:0.5"
               id="g142"
               clip-path="url(#clipPath136)"><g
                 id="g140"
                 transform="translate(280.9889,191.9831)"><path
                   id="path138"
                   style="fill:#223766;fill-opacity:1;fill-rule:nonzero;stroke:none"
                   d="m 0,0 -9.672,-10.369 c -0.39,-0.417 -1.044,-0.441 -1.462,-0.051 l -4.05,3.778 c -0.418,0.39 -0.44,1.044 -0.05,1.462 l 9.672,10.369 z" /></g></g></g></g><g
           transform="translate(382.899,285.7121)"
           id="g146"><path
             id="path148"
             style="fill:#94b3f1;fill-opacity:1;fill-rule:nonzero;stroke:none"
             d="m 0,0 -75.186,-80.602 c -0.462,-0.496 -1.239,-0.523 -1.735,-0.061 l -26.954,25.144 c -0.496,0.462 -0.522,1.239 -0.061,1.734 l 75.186,80.603 c 0.463,0.495 1.239,0.523 1.735,0.06 L -0.061,1.735 C 0.436,1.272 0.463,0.496 0,0" /></g><g
           id="g150"><g
             id="g152" /><g
             id="g164"><g
               style="opacity:0.5"
               id="g162"
               clip-path="url(#clipPath156)"><g
                 id="g160"
                 transform="translate(382.899,285.7121)"><path
                   id="path158"
                   style="fill:#94b4f0;fill-opacity:1;fill-rule:nonzero;stroke:none"
                   d="m 0,0 -75.186,-80.602 c -0.462,-0.496 -1.239,-0.523 -1.735,-0.061 L -90.397,-68.09 -13.537,14.307 -0.061,1.735 C 0.436,1.272 0.463,0.496 0,0" /></g></g></g></g><g
           transform="translate(351.8961,85.9811)"
           id="g166"><path
             id="path168"
             style="fill:#223766;fill-opacity:1;fill-rule:nonzero;stroke:none"
             d="m 0,0 h -135.965 v 14.981 c 0,1.845 1.495,3.34 3.34,3.34 H -3.34 c 1.845,0 3.34,-1.495 3.34,-3.34 z" /></g><g
           id="g170"><g
             id="g172" /><g
             id="g182"><g
               style="opacity:0.5"
               id="g180"
               clip-path="url(#clipPath176)"><path
                 id="path178"
                 style="fill:#223766;fill-opacity:1;fill-rule:nonzero;stroke:none"
                 d="M 351.896,84.486 H 215.931 v 10.768 h 135.965 z" /></g></g></g><g
           transform="translate(352.65,258.445)"
           id="g184"><path
             id="path186"
             style="fill:#223766;fill-opacity:1;fill-rule:nonzero;stroke:none"
             d="m 0,0 v -63.11 c 0,-30.95 -25.09,-56.03 -56.04,-56.03 h -7.231 c -15.489,0 -29.819,5.02 -41.429,13.52 l -2.69,-3.6 -3.74,-5 c 13.53,-9.96 30.25,-15.85 48.34,-15.85 H -51 c 35.97,0 65.14,29.16 65.14,65.14 l 0,64.93 z" /></g><g
           id="g188"><g
             id="g190" /><g
             id="g202"><g
               style="opacity:0.5"
               id="g200"
               clip-path="url(#clipPath194)"><g
                 id="g198"
                 transform="translate(359.7174,192.445)"><path
                   id="path196"
                   style="fill:#223766;fill-opacity:1;fill-rule:nonzero;stroke:none"
                   d="m 0,0 c -1.286,-33.285 -28.787,-57.13 -62.228,-57.96 -26.009,-0.65 -45.839,9.87 -52.23,14.74 l 2.69,3.6 c 11.611,-8.5 25.941,-13.52 41.43,-13.52 h 7.231 c 30.95,0 56.04,25.08 56.04,56.03 v 62.13 l 3.46,0.98 3.61,1.02 c 0,0 0.029,-0.35 0.069,-1.02 C 0.623,58.29 1.054,27.807 0,0" /></g></g></g></g><g
           transform="translate(256.652,150.5778)"
           id="g204"><path
             id="path206"
             style="fill:#94b3f1;fill-opacity:1;fill-rule:nonzero;stroke:none"
             d="m 0,0 -7.808,-11.504 c -0.473,-0.697 -1.421,-0.879 -2.118,-0.405 L -39.583,8.219 c -0.697,0.473 -0.878,1.422 -0.405,2.119 l 7.808,11.504 z" /></g><g
           id="g208"><g
             id="g210" /><g
             id="g222"><g
               style="opacity:0.5"
               id="g220"
               clip-path="url(#clipPath214)"><g
                 id="g218"
                 transform="translate(256.652,150.5778)"><path
                   id="path216"
                   style="fill:#94b4f0;fill-opacity:1;fill-rule:nonzero;stroke:none"
                   d="m 0,0 -4.332,-6.384 -32.181,21.842 v 10e-4 l 4.333,6.383 z" /></g></g></g></g><g
           transform="translate(273.0885,156.155)"
           id="g224"><path
             id="path226"
             style="fill:#223766;fill-opacity:1;fill-rule:nonzero;stroke:none"
             d="m 0,0 -6.887,-10.146 c -0.49,-0.723 -1.475,-0.912 -2.198,-0.42 l -46.883,31.82 c -0.723,0.491 -0.912,1.475 -0.421,2.199 l 6.887,10.146 c 0.49,0.723 1.475,0.912 2.199,0.421 L -0.421,2.199 C 0.303,1.708 0.491,0.724 0,0" /></g><g
           id="g228"><g
             id="g230" /><g
             id="g242"><g
               style="opacity:0.5"
               id="g240"
               clip-path="url(#clipPath234)"><g
                 id="g238"
                 transform="translate(269.6451,151.0817)"><path
                   id="path236"
                   style="fill:#223766;fill-opacity:1;fill-rule:nonzero;stroke:none"
                   d="m 0,0 -3.443,-5.073 c -0.491,-0.723 -1.476,-0.911 -2.199,-0.42 l -46.882,31.82 c -0.724,0.491 -0.913,1.476 -0.421,2.199 l 3.443,5.073 z" /></g></g></g></g><g
           transform="translate(380.4996,258.445)"
           id="g244"><path
             id="path246"
             style="fill:#223766;fill-opacity:1;fill-rule:nonzero;stroke:none"
             d="m 0,0 c 0,-11.48 -9.3,-20.79 -20.779,-20.79 -5.031,0 -9.651,1.79 -13.241,4.77 -4.61,3.81 -7.549,9.57 -7.549,16.02 0,11.48 9.309,20.79 20.79,20.79 5.71,0 10.889,-2.31 14.639,-6.03 C -2.35,10.99 0,5.77 0,0" /></g><g
           transform="translate(370.86,258.445)"
           id="g248"><path
             id="path250"
             style="fill:#94b3f1;fill-opacity:1;fill-rule:nonzero;stroke:none"
             d="m 0,0 c 0,-6.154 -4.989,-11.143 -11.143,-11.143 -6.154,0 -11.143,4.989 -11.143,11.143 0,6.154 4.989,11.143 11.143,11.143 C -4.989,11.143 0,6.154 0,0" /></g><g
           id="g252"><g
             id="g254" /><g
             id="g266"><g
               style="opacity:0.5"
               id="g264"
               clip-path="url(#clipPath258)"><g
                 id="g262"
                 transform="translate(380.4996,258.445)"><path
                   id="path260"
                   style="fill:#223766;fill-opacity:1;fill-rule:nonzero;stroke:none"
                   d="m 0,0 c 0,-11.48 -9.3,-20.79 -20.779,-20.79 -5.031,0 -9.651,1.79 -13.241,4.77 L -6.14,14.76 C -2.35,10.99 0,5.77 0,0" /></g></g></g></g><g
           transform="translate(311.0699,135.8151)"
           id="g268"><path
             id="path270"
             style="fill:#223766;fill-opacity:1;fill-rule:nonzero;stroke:none"
             d="M 0,0 V -40.23 H -27.16 V 0 c 0,7.37 5.98,13.34 13.35,13.34 h 0.47 C -5.97,13.34 0,7.37 0,0" /></g><g
           transform="translate(303.7711,134.485)"
           id="g272"><path
             id="path274"
             style="fill:#94b3f1;fill-opacity:1;fill-rule:nonzero;stroke:none"
             d="m 0,0 c 0,-3.469 -2.813,-6.281 -6.281,-6.281 -3.469,0 -6.282,2.812 -6.282,6.281 0,3.469 2.813,6.281 6.282,6.281 C -2.813,6.281 0,3.469 0,0" /></g><g
           id="g276"><g
             id="g278" /><g
             id="g290"><g
               style="opacity:0.5"
               id="g288"
               clip-path="url(#clipPath282)"><g
                 id="g286"
                 transform="translate(297.4899,149.155)"><path
                   id="path284"
                   style="fill:#223766;fill-opacity:1;fill-rule:nonzero;stroke:none"
                   d="m 0,0 v -53.57 h -13.58 v 40.23 C -13.58,-5.97 -7.6,0 -0.229,0 Z" /></g></g></g></g><g
           transform="translate(217.7912,125.1403)"
           id="g292"><path
             id="path294"
             style="fill:#adc9f7;fill-opacity:1;fill-rule:nonzero;stroke:none"
             d="m 0,0 c 0,-33.37 -27.051,-45.254 -60.411,-45.254 -33.37,0 -60.421,11.884 -60.421,45.254 0,26.349 16.874,51.379 40.403,60.734 v 72.932 h 40.026 V 60.734 C -16.875,51.379 0,26.359 0,0" /></g><g
           transform="translate(179.3165,266.8542)"
           id="g296"><path
             id="path298"
             style="fill:#94b3f1;fill-opacity:1;fill-rule:nonzero;stroke:none"
             d="m 0,0 h -43.436 c -1.086,0 -1.967,-0.88 -1.967,-1.966 v -4.516 c 0,-1.086 0.881,-1.967 1.967,-1.967 H 0 c 1.086,0 1.967,0.881 1.967,1.967 v 4.516 C 1.967,-0.88 1.086,0 0,0" /></g><g
           transform="translate(210.1041,126.0778)"
           id="g300"><path
             id="path302"
             style="fill:#ffffff;fill-opacity:1;fill-rule:nonzero;stroke:none"
             d="m 0,0 c 0,-28.995 -23.507,-39.322 -52.502,-39.322 -28.996,0 -52.503,10.327 -52.503,39.322 0,7.973 1.772,15.805 4.959,22.967 5.92,-1.555 7.519,-5.714 16.042,-5.714 10.49,0 10.49,6.309 20.99,6.309 10.501,0 10.501,-6.309 21.001,-6.309 10.501,0 10.501,6.309 21.001,6.309 9.474,0 10.414,-5.132 18.193,-6.136 C -0.994,11.84 0,5.963 0,0" /></g><g
           transform="translate(179.7496,154.2448)"
           id="g304"><path
             id="path306"
             style="fill:#ffffff;fill-opacity:1;fill-rule:nonzero;stroke:none"
             d="m 0,0 c 0,-2.109 -1.71,-3.82 -3.82,-3.82 -2.109,0 -3.82,1.711 -3.82,3.82 0,2.109 1.711,3.819 3.82,3.819 C -1.71,3.819 0,2.109 0,0" /></g><g
           transform="translate(168.6378,174.4597)"
           id="g308"><path
             id="path310"
             style="fill:#ffffff;fill-opacity:1;fill-rule:nonzero;stroke:none"
             d="m 0,0 c 0,-3.11 -2.521,-5.631 -5.631,-5.631 -3.111,0 -5.632,2.521 -5.632,5.631 0,3.11 2.521,5.632 5.632,5.632 C -2.521,5.632 0,3.11 0,0" /></g><g
           transform="translate(201.6818,132.8649)"
           id="g312"><path
             id="path314"
             style="fill:#94b3f1;fill-opacity:1;fill-rule:nonzero;stroke:none"
             d="m 0,0 c 0,-1.739 -1.41,-3.148 -3.149,-3.148 -1.739,0 -3.149,1.409 -3.149,3.148 0,1.739 1.41,3.149 3.149,3.149 C -1.41,3.149 0,1.739 0,0" /></g><g
           transform="translate(197.1515,116.0407)"
           id="g316"><path
             id="path318"
             style="fill:#94b3f1;fill-opacity:1;fill-rule:nonzero;stroke:none"
             d="m 0,0 c 0,-2.716 -2.201,-4.917 -4.917,-4.917 -2.715,0 -4.916,2.201 -4.916,4.917 0,2.716 2.201,4.917 4.916,4.917 C -2.201,4.917 0,2.716 0,0" /></g><g
           transform="translate(183.3019,86.7556)"
           id="g320"><path
             id="path322"
             style="fill:#ffffff;fill-opacity:1;fill-rule:nonzero;stroke:none"
             d="m 0,0 h -111.325 c -9.625,0 -15.643,10.425 -10.824,18.765 l 41.71,72.24 v 101.71 h 49.543 V 91.005 L 10.825,18.765 C 15.643,10.425 9.625,0 0,0" /></g><g
           transform="translate(177.8576,94.6306)"
           id="g324"><path
             id="path326"
             style="fill:#94b3f1;fill-opacity:1;fill-rule:nonzero;stroke:none"
             d="m 0,0 h -101.311 c -5.779,0 -9.398,6.256 -6.503,11.268 l 37.216,64.451 c 3.749,-2.539 5.682,-6.784 12.132,-6.784 3.975,0 6.233,1.609 8.254,3.446 2.657,2.409 4.915,5.196 10.144,5.196 6.525,0 10.943,-4.948 12.25,-6.871 L 6.503,11.268 C 9.398,6.256 5.779,0 0,0" /></g><g
           id="g328"><g
             id="g330" /><g
             id="g342"><g
               id="g340"
               clip-path="url(#clipPath334)"><g
                 id="g338"
                 transform="translate(183.3019,86.7556)"><path
                   id="path336"
                   style="fill:#daddef;fill-opacity:1;fill-rule:nonzero;stroke:none"
                   d="m 0,0 h -55.667 v 192.715 h 24.771 V 91.005 L 10.825,18.765 C 15.643,10.425 9.625,0 0,0" /></g></g></g></g><g
           transform="translate(156.5109,286.2546)"
           id="g344"><path
             id="path346"
             style="fill:#94b3f1;fill-opacity:1;fill-rule:nonzero;stroke:none"
             d="m 0,0 v -4.31 c 0,-1.361 -1.102,-2.474 -2.474,-2.474 h -53.68 c -1.362,0 -2.474,1.113 -2.474,2.474 V 0 c 0,1.372 1.112,2.474 2.474,2.474 h 53.68 C -1.102,2.474 0,1.372 0,0" /></g><g
           id="g348"><g
             id="g350" /><g
             id="g362"><g
               style="opacity:0.5"
               id="g360"
               clip-path="url(#clipPath354)"><g
                 id="g358"
                 transform="translate(156.5109,286.2546)"><path
                   id="path356"
                   style="fill:#6da7f2;fill-opacity:1;fill-rule:nonzero;stroke:none"
                   d="M 0,0 V -4.31 C 0,-5.671 -1.102,-6.784 -2.474,-6.784 H -44.357 V 2.474 H -2.474 C -1.102,2.474 0,1.372 0,0" /></g></g></g></g><g
           id="g364"><g
             id="g366" /><g
             id="g378"><g
               style="opacity:0.5"
               id="g376"
               clip-path="url(#clipPath370)"><g
                 id="g374"
                 transform="translate(119.8507,151.6891)"><path
                   id="path372"
                   style="fill:#94b4f0;fill-opacity:1;fill-rule:nonzero;stroke:none"
                   d="m 0,0 c 0,-2.014 -1.632,-3.646 -3.646,-3.646 -2.014,0 -3.646,1.632 -3.646,3.646 0,2.013 1.632,3.646 3.646,3.646 C -1.632,3.646 0,2.013 0,0" /></g></g></g></g><g
           transform="translate(123.757,179.4675)"
           id="g380"><path
             id="path382"
             style="fill:#94b3f1;fill-opacity:1;fill-rule:nonzero;stroke:none"
             d="m 0,0 c 0,-2.157 -1.749,-3.906 -3.906,-3.906 -2.158,0 -3.907,1.749 -3.907,3.906 0,2.158 1.749,3.907 3.907,3.907 C -1.749,3.907 0,2.158 0,0" /></g><g
           id="g384"><g
             id="g386" /><g
             id="g398"><g
               style="opacity:0.5"
               id="g396"
               clip-path="url(#clipPath390)"><g
                 id="g394"
                 transform="translate(143.0534,200.6452)"><path
                   id="path392"
                   style="fill:#94b4f0;fill-opacity:1;fill-rule:nonzero;stroke:none"
                   d="m 0,0 c 0,-3.705 -3.004,-6.709 -6.709,-6.709 -3.705,0 -6.708,3.004 -6.708,6.709 0,3.705 3.003,6.708 6.708,6.708 C -3.004,6.708 0,3.705 0,0" /></g></g></g></g><g
           transform="translate(122.8888,215.9284)"
           id="g400"><path
             id="path402"
             style="fill:#94b3f1;fill-opacity:1;fill-rule:nonzero;stroke:none"
             d="m 0,0 c 0,-1.679 -1.36,-3.039 -3.038,-3.039 -1.678,0 -3.039,1.36 -3.039,3.039 0,1.678 1.361,3.038 3.039,3.038 C -1.36,3.038 0,1.678 0,0" /></g><g
           transform="translate(149.3659,150.2995)"
           id="g404"><path
             id="path406"
             style="fill:#94b3f1;fill-opacity:1;fill-rule:nonzero;stroke:none"
             d="m 0,0 c 0,-2.78 -2.254,-5.035 -5.035,-5.035 -2.78,0 -5.035,2.255 -5.035,5.035 0,2.781 2.255,5.035 5.035,5.035 C -2.254,5.035 0,2.781 0,0" /></g><g
           transform="translate(135.9103,134.9968)"
           id="g408"><path
             id="path410"
             style="fill:#94b3f1;fill-opacity:1;fill-rule:nonzero;stroke:none"
             d="m 0,0 c 0,-1.103 -0.894,-1.996 -1.997,-1.996 -1.102,0 -1.996,0.893 -1.996,1.996 0,1.103 0.894,1.997 1.996,1.997 C -0.894,1.997 0,1.103 0,0" /></g><g
           transform="translate(451.2203,72.655)"
           id="g412"><path
             id="path414"
             style="fill:#223766;fill-opacity:1;fill-rule:nonzero;stroke:none"
             d="m 0,0 c 0,-3.67 -1.49,-6.99 -3.891,-9.39 -2.41,-2.4 -5.729,-3.89 -9.399,-3.89 h -371.57 c -7.34,0 -13.29,5.95 -13.29,13.28 0,3.67 1.49,6.99 3.89,9.4 2.409,2.4 5.73,3.89 9.4,3.89 H -13.29 C -5.95,13.29 0,7.34 0,0" /></g><g
           id="g416"><g
             id="g418" /><g
             id="g430"><g
               style="opacity:0.5"
               id="g428"
               clip-path="url(#clipPath422)"><g
                 id="g426"
                 transform="translate(451.2203,72.655)"><path
                   id="path424"
                   style="fill:#223766;fill-opacity:1;fill-rule:nonzero;stroke:none"
                   d="m 0,0 c 0,-3.67 -1.49,-6.99 -3.891,-9.39 -2.41,-2.4 -5.729,-3.89 -9.399,-3.89 h -371.57 c -7.34,0 -13.29,5.95 -13.29,13.28 z" /></g></g></g></g><g
           transform="translate(250.8356,272.7546)"
           id="g432"><path
             id="path434"
             style="fill:#a7d49b;fill-opacity:1;fill-rule:nonzero;stroke:none"
             d="m 0,0 -0.06,-1.01 v -0.01 c -0.27,-3.07 -0.93,-6.29 -2.01,-9.56 l -0.37,-1.1 c -1.1,-3.11 -2.58,-6.25 -4.42,-9.33 -0.23,-0.39 -0.47,-0.77 -0.72,-1.16 -0.1,-0.17 -0.2,-0.33 -0.31,-0.5 -1.71,-2.641 -3.59,-5.06 -5.59,-7.22 -0.41,-0.44 -0.82,-0.86 -1.23,-1.28 -5.79,-5.84 -12.42,-9.63 -18.62,-10.78 -0.23,-0.05 -0.45,-0.09 -0.67,-0.12 l -0.01,0.03 -0.16,0.63 c -1.05,4.349 -0.97,9.44 0.23,14.77 v 0.01 l 0.54,2.16 c 0.95,3.46 2.37,6.99 4.27,10.47 l 0.76,1.36 c 0.44,0.78 0.92,1.56 1.42,2.33 1.53,2.37 3.2,4.55 4.97,6.53 l 0.86,0.95 c 2.31,2.46 4.78,4.6 7.31,6.36 0.31,0.22 0.62,0.43 0.93,0.63 3.81,2.51 7.73,4.16 11.51,4.83 0.12,0.03 0.25,0.05 0.37,0.07 h 0.01 c 0.05,0.01 0.1,0.02 0.15,0.03 C -0.77,8.83 -0.71,8.57 -0.65,8.31 -0.61,8.19 -0.59,8.06 -0.56,7.93 -0.02,5.48 0.17,2.81 0,0" /></g><g
           id="g436"><g
             id="g438" /><g
             id="g450"><g
               style="opacity:0.30000299"
               id="g448"
               clip-path="url(#clipPath442)"><g
                 id="g446"
                 transform="translate(250.8356,272.7546)"><path
                   id="path444"
                   style="fill:#a7d49b;fill-opacity:1;fill-rule:nonzero;stroke:none"
                   d="m 0,0 -0.06,-1.01 v -0.01 c -0.27,-3.07 -0.93,-6.29 -2.01,-9.56 l -0.37,-1.1 c -1.1,-3.11 -2.58,-6.25 -4.42,-9.33 -0.23,-0.39 -0.47,-0.77 -0.72,-1.16 -0.1,-0.17 -0.2,-0.33 -0.31,-0.5 -1.71,-2.641 -3.59,-5.06 -5.59,-7.22 -0.41,-0.44 -0.82,-0.86 -1.23,-1.28 -5.79,-5.84 -12.42,-9.63 -18.62,-10.78 -0.23,-0.05 -0.45,-0.09 -0.67,-0.12 l -0.01,0.03 33.17,51.13 C -0.77,8.83 -0.71,8.57 -0.65,8.31 -0.61,8.19 -0.59,8.06 -0.56,7.93 -0.02,5.48 0.17,2.81 0,0" /></g></g></g></g><g
           transform="translate(244.256,271.9343)"
           id="g452"><path
             id="path454"
             style="fill:#81b075;fill-opacity:1;fill-rule:nonzero;stroke:none"
             d="M 0,0 5.93,9.13 C 5.87,9.39 5.81,9.65 5.74,9.91 5.69,9.9 5.64,9.89 5.59,9.88 H 5.58 C 5.46,9.86 5.33,9.84 5.21,9.81 L -2.31,-1.58 -4.96,-5.67 -6.3,4.98 C -6.61,4.78 -6.92,4.57 -7.23,4.35 l 1.43,-11.32 -6.31,-9.74 -2.43,14.7 -0.86,-0.95 2.49,-14.98 -6.04,-9.32 -2.84,15.44 -0.76,-1.36 2.81,-15.299 -4.43,-6.84 -2.65,11.67 -0.54,-2.161 2.42,-10.69 -2.65,-4.09 0.17,-0.66 c 0.22,0.03 0.44,0.07 0.67,0.12 l 5.19,8 13.43,2.78 1.23,1.281 -13.89,-2.881 4.87,7.52 14.92,3.08 c 0.25,0.39 0.49,0.77 0.72,1.16 l -14.88,-3.06 6.38,9.84 12.92,2.55 0.37,1.1 -12.52,-2.47 6.54,10.09 0.702,1.029 0.008,10e-4 v 0.01 l 7.28,0.9 v 0.01 l 0.06,1.01 z" /></g><g
           transform="translate(216.0856,231.3542)"
           id="g456"><path
             id="path458"
             style="fill:#81b075;fill-opacity:1;fill-rule:nonzero;stroke:none"
             d="M 0,0 C -0.03,-0.2 -0.08,-0.38 -0.13,-0.569 -0.14,-0.6 -0.15,-0.64 -0.16,-0.67 c -0.23,0.04 -0.45,0.08 -0.68,0.13 -2.89,0.59 -5.92,2.051 -8.78,4.261 -0.51,0.38 -1.01,0.79 -1.5,1.229 -2.16,1.901 -4.19,4.24 -5.94,6.941 -4.4,6.789 -5.98,14.219 -4.74,19.849 0.05,0.24 0.11,0.48 0.17,0.71 0.21,-0.03 0.42,-0.07 0.64,-0.12 C -15.33,31.19 -9.14,26.7 -4.73,19.89 -0.32,13.08 1.26,5.63 0,0" /></g><g
           id="g460"><g
             id="g462" /><g
             id="g474"><g
               style="opacity:0.5"
               id="g472"
               clip-path="url(#clipPath466)"><g
                 id="g470"
                 transform="translate(215.9557,230.7849)"><path
                   id="path468"
                   style="fill:#81b075;fill-opacity:1;fill-rule:nonzero;stroke:none"
                   d="m 0,0 c -0.01,-0.03 -0.02,-0.07 -0.03,-0.101 -0.23,0.04 -0.45,0.08 -0.68,0.13 -2.89,0.59 -5.92,2.051 -8.78,4.261 -0.51,0.38 -1.01,0.79 -1.5,1.23 -2.16,1.9 -4.19,4.24 -5.94,6.94 -4.4,6.79 -5.98,14.22 -4.74,19.85 0.05,0.24 0.11,0.48 0.17,0.71 z" /></g></g></g></g><g
           transform="translate(213.4259,235.4645)"
           id="g476"><path
             id="path478"
             style="fill:#a7d49b;fill-opacity:1;fill-rule:nonzero;stroke:none"
             d="M 0,0 V 0.01 L 0.91,10.1 0.08,11.97 -0.89,1.37 -4.73,7.29 -3.87,18.31 v 0.01 L -4.78,19.42 -5.62,8.68 V 8.67 l -4.96,7.65 -0.17,8.55 -1.02,0.66 0.15,-7.61 -6.71,10.3 c -0.22,0.05 -0.43,0.09 -0.64,0.12 -0.06,-0.23 -0.12,-0.47 -0.17,-0.71 l 4.21,-6.43 -4.59,1.32 0.09,-1.06 5.33,-1.54 4.79,-7.39 -8.43,1.84 0.45,-1.12 8.75,-1.92 4.01,-6.18 -9.57,2.2 0.85,-1.23 9.5,-2.17 2.72,-4.2 -7.43,1.09 c 0.49,-0.44 0.99,-0.85 1.5,-1.23 l 6.648,-0.977 0.002,-0.003 2.13,-3.28 c 0.23,-0.05 0.45,-0.09 0.68,-0.13 0.06,0.219 0.12,0.44 0.16,0.67 z" /></g><g
           transform="translate(237.5558,231.9645)"
           id="g480"><path
             id="path482"
             style="fill:#d1820c;fill-opacity:1;fill-rule:nonzero;stroke:none"
             d="m 0,0 -5.69,-32.64 c -0.07,-0.421 -0.44,-0.73 -0.86,-0.73 h -25.74 c -0.43,0 -0.79,0.309 -0.87,0.73 L -38.85,0 c -0.09,0.54 0.32,1.03 0.86,1.03 H -0.86 C -0.31,1.03 0.1,0.54 0,0" /></g><g
           transform="translate(218.1359,232.9948)"
           id="g484"><path
             id="path486"
             style="fill:#b94c0c;fill-opacity:1;fill-rule:nonzero;stroke:none"
             d="m 0,0 v -34.4 h -12.87 c -0.43,0 -0.79,0.309 -0.87,0.73 l -5.69,32.64 c -0.09,0.54 0.32,1.03 0.86,1.03 z" /></g><g
           transform="translate(202.1803,358.2663)"
           id="g488"><path
             id="path490"
             style="fill:#c9630c;fill-opacity:1;fill-rule:nonzero;stroke:none"
             d="m 0,0 c 1.234,-13.625 -8.799,-25.671 -22.424,-26.905 -9.919,-0.898 -18.989,4.18 -23.654,12.269 -1.748,3.016 -2.889,6.466 -3.224,10.172 -0.191,2.103 -0.11,4.161 0.215,6.157 0.321,2.037 0.886,4.013 1.689,5.855 3.483,8.069 11.146,14.03 20.507,14.877 5.183,0.47 10.12,-0.698 14.336,-3.056 0.266,-0.144 0.518,-0.29 0.773,-0.464 1.41,-0.841 2.709,-1.847 3.933,-2.958 C -3.498,11.945 -0.575,6.353 0,0" /></g><g
           transform="translate(193.6061,367.0266)"
           id="g492"><path
             id="path494"
             style="fill:#d1820c;fill-opacity:1;fill-rule:nonzero;stroke:none"
             d="m 0,0 c 1.232,-13.611 -8.801,-25.657 -22.425,-26.891 -5.475,-0.496 -10.708,0.829 -15.078,3.495 -1.748,3.016 -2.89,6.466 -3.225,10.171 -0.19,2.104 -0.11,4.162 0.215,6.158 0.321,2.037 0.887,4.013 1.689,5.855 3.483,8.068 11.146,14.029 20.508,14.877 5.182,0.469 10.119,-0.699 14.336,-3.056 0.265,-0.145 0.518,-0.29 0.772,-0.464 C -1.46,7.129 -0.335,3.706 0,0" /></g><g
           transform="translate(138.0397,376.0544)"
           id="g496"><path
             id="path498"
             style="fill:#d1820c;fill-opacity:1;fill-rule:nonzero;stroke:none"
             d="m 0,0 c 0.698,-7.704 -4.979,-14.51 -12.682,-15.208 -7.704,-0.697 -14.51,4.979 -15.208,12.683 -0.096,1.059 -0.064,2.101 0.068,3.124 0.844,6.341 5.968,11.496 12.613,12.097 C -8.564,13.298 -2.598,9.147 -0.628,3.062 -0.314,2.079 -0.096,1.059 0,0" /></g><g
           transform="translate(138.0397,376.0544)"
           id="g500"><path
             id="path502"
             style="fill:#b0570c;fill-opacity:1;fill-rule:nonzero;stroke:none"
             d="m 0,0 c 0.698,-7.704 -4.979,-14.51 -12.682,-15.208 -6.214,-0.562 -11.848,3.029 -14.153,8.48 2.649,-1.965 6.029,-2.993 9.568,-2.673 7.704,0.698 13.38,7.504 12.682,15.208 -0.096,1.059 -0.314,2.078 -0.628,3.061 -0.119,0.383 -0.265,0.749 -0.41,1.115 C -3.321,8.295 -1.544,5.886 -0.628,3.062 -0.314,2.079 -0.096,1.059 0,0" /></g><g
           transform="translate(215.9743,392.1691)"
           id="g504"><path
             id="path506"
             style="fill:#c9630c;fill-opacity:1;fill-rule:nonzero;stroke:none"
             d="m 0,0 c 0.558,-6.156 -3.981,-11.599 -10.138,-12.157 -6.156,-0.557 -11.599,3.982 -12.156,10.138 -0.558,6.157 3.981,11.6 10.137,12.157 C -6,10.695 -0.558,6.157 0,0" /></g><g
           transform="translate(215.9787,392.1711)"
           id="g508"><path
             id="path510"
             style="fill:#b94c0c;fill-opacity:1;fill-rule:nonzero;stroke:none"
             d="m 0,0 c 0.558,-6.158 -3.992,-11.598 -10.149,-12.155 -4.458,-0.404 -8.57,1.878 -10.684,5.521 1.496,-0.538 3.132,-0.769 4.818,-0.617 6.158,0.558 10.693,5.997 10.136,12.154 -0.153,1.686 -0.673,3.24 -1.472,4.614 C -3.386,8.079 -0.405,4.472 0,0" /></g><g
           transform="translate(202.4093,307.2419)"
           id="g512"><path
             id="path514"
             style="fill:#c9630c;fill-opacity:1;fill-rule:nonzero;stroke:none"
             d="m 0,0 c 0.701,-7.742 -4.996,-14.586 -12.738,-15.288 -7.742,-0.701 -14.576,5.009 -15.278,12.751 -0.506,5.592 2.324,10.712 6.864,13.385 1.735,1.025 3.725,1.697 5.876,1.892 1.023,0.092 2.032,0.078 3.005,-0.056 C -5.835,11.895 -0.607,6.708 0,0" /></g><g
           transform="translate(202.4039,307.2458)"
           id="g516"><path
             id="path518"
             style="fill:#b94c0c;fill-opacity:1;fill-rule:nonzero;stroke:none"
             d="m 0,0 c 0.701,-7.746 -4.985,-14.595 -12.73,-15.296 -6.228,-0.564 -11.876,3.025 -14.195,8.476 2.173,-1.039 4.631,-1.505 7.194,-1.273 7.746,0.701 13.447,7.538 12.746,15.283 -0.138,1.519 -0.506,2.947 -1.089,4.27 C -3.677,9.428 -0.468,5.168 0,0" /></g><g
           transform="translate(190.1388,319.9255)"
           id="g520"><path
             id="path522"
             style="fill:#2d3565;fill-opacity:1;fill-rule:nonzero;stroke:none"
             d="m 0,0 c -0.973,0.135 -1.982,0.148 -3.005,0.056 -2.151,-0.195 -4.141,-0.867 -5.877,-1.891 l -4.125,21.355 c -0.47,2.465 1.132,4.837 3.585,5.317 0.151,0.026 0.3,0.051 0.451,0.064 2.302,0.209 4.412,-1.346 4.867,-3.661 z" /></g><g
           transform="translate(154.7843,365.8195)"
           id="g524"><path
             id="path526"
             style="fill:#2d3565;fill-opacity:1;fill-rule:nonzero;stroke:none"
             d="m 0,0 c -0.805,-1.854 -1.376,-3.828 -1.696,-5.861 l -19.943,7.324 c -1.588,0.583 -2.39,2.327 -1.819,3.914 0.424,1.14 1.459,1.878 2.598,1.981 0.43,0.039 0.88,-0.014 1.317,-0.173 z" /></g><g
           transform="translate(204.9313,388.2453)"
           id="g528"><path
             id="path530"
             style="fill:#2d3565;fill-opacity:1;fill-rule:nonzero;stroke:none"
             d="m 0,0 c 0.066,-0.732 -0.158,-1.491 -0.665,-2.111 l -9.937,-11.917 c -1.432,1.312 -3.001,2.459 -4.705,3.418 L -5.114,1.6 c 1.024,1.241 2.849,1.406 4.08,0.369 C -0.425,1.461 -0.067,0.744 0,0" /></g><g
           transform="translate(296.9108,342.4533)"
           id="g532"><path
             id="path534"
             style="fill:#223766;fill-opacity:1;fill-rule:nonzero;stroke:none"
             d="m 0,0 c -0.845,-0.07 -1.709,0.246 -2.313,0.93 l -18.565,21.082 c -1.011,1.148 -0.899,2.899 0.248,3.91 1.15,1.015 2.9,0.9 3.911,-0.248 L 1.848,4.592 C 2.857,3.444 2.747,1.693 1.6,0.682 1.135,0.273 0.571,0.048 0,0" /></g><g
           transform="translate(323.0172,367.2458)"
           id="g536"><path
             id="path538"
             style="fill:#94b3f1;fill-opacity:1;fill-rule:nonzero;stroke:none"
             d="m 0,0 c -0.967,-0.08 -1.947,0.35 -2.529,1.211 l -16.393,24.288 c -0.856,1.269 -0.521,2.99 0.747,3.846 1.267,0.856 2.991,0.522 3.847,-0.746 L 2.065,4.312 C 2.921,3.043 2.586,1.321 1.317,0.465 0.911,0.191 0.457,0.038 0,0" /></g><g
           transform="translate(339.2506,369.7473)"
           id="g540"><path
             id="path542"
             style="fill:#94b3f1;fill-opacity:1;fill-rule:nonzero;stroke:none"
             d="m 0,0 c -0.976,-0.081 -1.966,0.359 -2.543,1.234 l -24.345,36.844 c -0.844,1.276 -0.493,2.995 0.784,3.839 1.278,0.842 2.997,0.492 3.838,-0.785 L 2.079,4.289 C 2.924,3.012 2.572,1.293 1.296,0.45 0.895,0.185 0.448,0.037 0,0" /></g><g
           transform="translate(288.8317,324.5412)"
           id="g544"><path
             id="path546"
             style="fill:#223766;fill-opacity:1;fill-rule:nonzero;stroke:none"
             d="m 0,0 c -0.954,-0.218 -1.996,0.079 -2.691,0.864 l -29.288,33.052 c -1.015,1.145 -0.909,2.896 0.237,3.911 1.146,1.013 2.897,0.909 3.911,-0.237 L 1.455,4.539 C 2.472,3.394 2.365,1.643 1.22,0.628 0.859,0.309 0.438,0.1 0,0" /></g><g
           transform="translate(263.3229,302.7297)"
           id="g548"><path
             id="path550"
             style="fill:#223766;fill-opacity:1;fill-rule:nonzero;stroke:none"
             d="m 0,0 c -0.897,-0.205 -1.877,0.074 -2.53,0.812 l -27.522,31.061 c -0.955,1.076 -0.855,2.721 0.221,3.675 1.078,0.953 2.724,0.854 3.676,-0.222 L 1.367,4.265 C 2.322,3.189 2.223,1.543 1.146,0.59 0.808,0.29 0.411,0.094 0,0" /></g><g
           transform="translate(354.9137,376.3991)"
           id="g552"><path
             id="path554"
             style="fill:#94b3f1;fill-opacity:1;fill-rule:nonzero;stroke:none"
             d="m 0,0 c -0.984,-0.082 -1.979,0.367 -2.556,1.253 l -27.426,42.228 c -0.833,1.284 -0.469,2.999 0.815,3.833 1.281,0.835 2.998,0.469 3.832,-0.814 L 2.092,4.271 C 2.925,2.987 2.561,1.272 1.276,0.438 0.88,0.18 0.441,0.037 0,0" /></g><g
           transform="translate(277.3951,311.8205)"
           id="g556"><path
             id="path558"
             style="fill:#223766;fill-opacity:1;fill-rule:nonzero;stroke:none"
             d="m 0,0 c -0.958,-0.187 -1.979,0.107 -2.628,0.851 l -30.953,35.44 c -0.939,1.077 -0.746,2.687 0.435,3.596 1.178,0.909 2.898,0.772 3.839,-0.305 L 1.646,4.142 C 2.586,3.065 2.393,1.456 1.211,0.546 0.847,0.265 0.43,0.084 0,0" /></g><g
           transform="translate(366.3571,387.4162)"
           id="g560"><path
             id="path562"
             style="fill:#94b3f1;fill-opacity:1;fill-rule:nonzero;stroke:none"
             d="m 0,0 c -0.982,-0.082 -1.975,0.363 -2.552,1.245 l -24.571,37.551 c -0.838,1.281 -0.479,2.998 0.801,3.835 1.281,0.841 2.999,0.479 3.837,-0.801 L 2.086,4.278 C 2.925,2.998 2.564,1.281 1.285,0.443 0.886,0.182 0.443,0.037 0,0" /></g><g
           transform="translate(228.1442,317.8566)"
           id="g564"><path
             id="path566"
             style="fill:#223766;fill-opacity:1;fill-rule:nonzero;stroke:none"
             d="m 0,0 c -0.38,-0.032 -0.771,0.015 -1.153,0.15 -1.442,0.511 -2.198,2.094 -1.687,3.537 4.901,13.844 10.813,28.142 24.297,37.464 19.184,13.264 35.338,13.374 50.964,13.478 1.766,0.012 3.525,0.024 5.283,0.055 1.461,0.026 3.027,0.032 4.681,0.037 12.601,0.04 29.859,0.094 44.048,9.831 11.612,7.969 17.333,24.037 18.81,28.771 0.455,1.459 2.009,2.275 3.471,1.821 1.46,-0.456 2.275,-2.01 1.819,-3.471 -1.611,-5.165 -7.885,-22.712 -20.966,-31.69 C 113.971,49.279 95.724,49.222 82.402,49.18 80.777,49.175 79.24,49.17 77.804,49.144 76.026,49.112 74.245,49.1 72.459,49.088 57.673,48.986 42.388,48.884 24.607,36.592 12.485,28.212 6.981,14.827 2.383,1.837 2.008,0.777 1.053,0.087 0,0" /></g><g
           transform="translate(246.1129,296.757)"
           id="g568"><path
             id="path570"
             style="fill:#94b3f1;fill-opacity:1;fill-rule:nonzero;stroke:none"
             d="m 0,0 c -1.449,-0.121 -2.761,0.909 -2.969,2.369 -0.218,1.514 0.834,2.918 2.349,3.135 7.951,1.139 20.662,5.586 30.32,14.37 16.378,14.894 19.924,33.064 21.168,45.435 2.322,23.103 6.287,39.352 19.68,54.042 11.611,12.734 28.541,15.819 40.904,18.073 1.527,0.274 2.948,-0.725 3.223,-2.23 0.274,-1.505 -0.724,-2.948 -2.23,-3.222 -12.23,-2.229 -27.453,-5.003 -37.801,-16.355 C 62.283,102.061 58.588,86.703 56.382,64.754 55.047,51.475 51.216,31.95 33.43,15.774 22.842,6.146 8.894,1.27 0.167,0.019 0.11,0.01 0.055,0.004 0,0" /></g><g
           transform="translate(410.5797,271.5148)"
           id="g572"><path
             id="path574"
             style="fill:#223766;fill-opacity:1;fill-rule:nonzero;stroke:none"
             d="m 0,0 c -0.66,-0.16 -1.29,-0.4 -1.87,-0.71 l -2.159,6.38 c 0.679,0.15 1.3,0.45 1.829,0.86 z" /></g><g
           transform="translate(405.6198,259.7551)"
           id="g576"><path
             id="path578"
             style="fill:#223766;fill-opacity:1;fill-rule:nonzero;stroke:none"
             d="m 0,0 -4.66,-0.96 c -0.01,0.69 -0.119,1.35 -0.33,1.97 l 4.18,0.86 C -0.63,1.21 -0.35,0.58 0,0" /></g><g
           transform="translate(423.4401,254.3249)"
           id="g580"><path
             id="path582"
             style="fill:#223766;fill-opacity:1;fill-rule:nonzero;stroke:none"
             d="m 0,0 c -0.521,-0.44 -0.95,-0.97 -1.28,-1.57 l -4.491,5.1 c 0.5,0.44 0.951,0.95 1.331,1.51 z" /></g><g
           transform="translate(437.5201,257.7849)"
           id="g584"><path
             id="path586"
             style="fill:#223766;fill-opacity:1;fill-rule:nonzero;stroke:none"
             d="m 0,0 -5.351,-5.2 c -0.299,0.61 -0.719,1.15 -1.219,1.61 l 5.1,4.96 C -1.08,0.81 -0.58,0.34 0,0" /></g><g
           transform="translate(420.36,263.8049)"
           id="g588"><path
             id="path590"
             style="fill:#d1820c;fill-opacity:1;fill-rule:nonzero;stroke:none"
             d="M 0,0 C 0,-1.65 -0.5,-3.17 -1.36,-4.44 -1.74,-5 -2.19,-5.51 -2.69,-5.95 c -1.4,-1.23 -3.23,-1.98 -5.24,-1.98 -2.9,0 -5.43,1.56 -6.81,3.88 -0.35,0.58 -0.63,1.21 -0.81,1.87 -0.2,0.69 -0.31,1.42 -0.31,2.18 0,3.04 1.7,5.67 4.21,7 0.58,0.31 1.21,0.55 1.87,0.71 0.59,0.14 1.21,0.22 1.85,0.22 C -3.55,7.93 0,4.38 0,0" /></g><g
           transform="translate(410.1803,281.695)"
           id="g592"><path
             id="path594"
             style="fill:#b94c0c;fill-opacity:1;fill-rule:nonzero;stroke:none"
             d="M 0,0 C 0,-1.49 -0.7,-2.82 -1.801,-3.65 -2.33,-4.06 -2.95,-4.36 -3.63,-4.51 c -0.32,-0.06 -0.641,-0.1 -0.98,-0.1 -2.54,0 -4.6,2.06 -4.6,4.61 0,2.54 2.06,4.6 4.6,4.6 C -2.061,4.6 0,2.54 0,0" /></g><g
           transform="translate(432.8004,250.0051)"
           id="g596"><path
             id="path598"
             style="fill:#b94c0c;fill-opacity:1;fill-rule:nonzero;stroke:none"
             d="m 0,0 c 0,-3.14 -2.54,-5.68 -5.681,-5.68 -3.13,0 -5.679,2.54 -5.679,5.68 0,1 0.259,1.93 0.719,2.75 0.33,0.6 0.76,1.13 1.281,1.57 0.99,0.84 2.28,1.35 3.679,1.35 1.481,0 2.821,-0.56 3.83,-1.48 0.5,-0.46 0.92,-1 1.22,-1.61 C -0.23,1.81 0,0.93 0,0" /></g><g
           transform="translate(445.0104,262.0051)"
           id="g600"><path
             id="path602"
             style="fill:#d1820c;fill-opacity:1;fill-rule:nonzero;stroke:none"
             d="m 0,0 c 0,-2.73 -2.21,-4.94 -4.94,-4.94 -0.93,0 -1.8,0.26 -2.55,0.72 -0.58,0.34 -1.08,0.81 -1.47,1.37 -0.58,0.8 -0.91,1.79 -0.91,2.85 0,2.72 2.21,4.94 4.93,4.94 C -2.21,4.94 0,2.72 0,0" /></g><g
           transform="translate(400.9703,258.655)"
           id="g604"><path
             id="path606"
             style="fill:#c9630c;fill-opacity:1;fill-rule:nonzero;stroke:none"
             d="m 0,0 c 0,-3.78 -3.07,-6.85 -6.86,-6.85 -3.79,0 -6.861,3.07 -6.861,6.85 0,3.79 3.071,6.86 6.861,6.86 3.049,0 5.639,-1.99 6.519,-4.75 0.211,-0.62 0.32,-1.28 0.33,-1.97 C 0,0.09 0,0.05 0,0" /></g></g></g></g></svg>