<?xml version="1.0" encoding="UTF-8" standalone="no"?>
<svg
   width="336.40158"
   height="384"
   viewBox="0 0 89.00681 101.60007"
   version="1.1"
   id="svg3123"
   sodipodi:docname="drawing.svg"
   inkscape:version="1.1 (c68e22c387, 2021-05-23)"
   xmlns:inkscape="http://www.inkscape.org/namespaces/inkscape"
   xmlns:sodipodi="http://sodipodi.sourceforge.net/DTD/sodipodi-0.dtd"
   xmlns="http://www.w3.org/2000/svg"
   xmlns:svg="http://www.w3.org/2000/svg">
  <g
     inkscape:label="Layer 1"
     inkscape:groupmode="layer"
     id="layer1">
    <path
        d="m 30.006386,101.55942 c 10.57006,0 21.139949,0 31.709838,0 0.369995,-8.218177 2.962969,-15.223299 9.81923,-19.903302 13.832034,-12.61725 23.267934,-28.290829 13.512894,-57.304696 -3.35077,-7.33549 -9.201854,-13.72868 -17.8371,-19.0739415 -2.818672,-0.797984 -3.607535,0.272763 -2.702596,2.902453 8.724045,10.0772445 13.527956,20.5553235 12.597718,31.5133625 -0.8355,9.837213 -3.380806,15.591147 -10.367769,20.545118 -6.636501,4.705301 -9.773453,1.870195 -8.985967,-2.963485 0.776128,-2.835967 2.596933,-5.31975 4.384265,-7.936043 2.83872,-4.155299 5.861577,-10.286025 5.118318,-15.272436 C 67.041825,32.636722 66.496298,31.217921 65.47167,29.800756 65.023374,29.181229 64.624985,28.942884 64.240965,29.08658 62.825348,29.614898 63.56723,33.568076 59.258857,40.029131 55.959967,44.97596 50.528444,49.37623 45.681083,54.704154 33.921274,65.732578 29.572889,82.402819 30.006386,101.55968 Z M 56.95465,8.3190345 c 0.382902,0.483747 1.343855,1.4374548 2.199662,2.6399635 0.85615,1.202276 1.606637,2.653852 2.086942,3.745715 0.480993,1.091639 0.690944,1.824478 0.773547,2.543206 0.08604,0.71865 0.03442,1.423567 -0.24781,2.004115 -0.28481,0.580806 -0.810547,1.03676 -1.426287,1.451326 -0.615224,0.414738 -1.321311,0.787314 -1.756873,1.091828 -0.435389,0.30374 -0.600596,0.539504 -0.750314,0.83636 -0.149719,0.296857 -0.285671,0.656526 -0.270183,1.050355 0.01721,0.394088 0.180695,0.822593 0.517993,0.940045 0.338158,0.117022 0.848406,-0.07744 1.223736,-0.524876 0.375157,-0.449157 0.615224,-1.154212 1.021013,-1.672376 0.405274,-0.518853 0.976012,-0.850128 1.486433,-1.278547 0.510248,-0.428506 0.960953,-0.953898 1.125988,-1.727704 0.165207,-0.774407 0.04302,-1.796969 -0.277926,-2.909543 C 62.337901,15.396095 61.812164,14.19381 61.091535,12.97059 60.371336,11.747138 59.455126,10.503423 58.734325,9.6394423 58.014126,8.7754705 57.488389,8.2919215 57.127945,8.0569755 56.767416,7.8218135 56.572093,7.8356665 56.954994,8.3194995 Z M 44.815984,39.065423 c 0.150579,0.06884 0.270182,0.1523 0.338158,0.317507 0.06884,0.166068 0.08604,0.414739 -0.03442,0.615224 -0.11272,0.200486 -0.352786,0.352786 -0.548109,0.352786 -0.195323,0 -0.345042,-0.1523 -0.390646,-0.290833 -0.04302,-0.138533 0.01721,-0.262438 0.07744,-0.351925 0.06023,-0.09035 0.119603,-0.145417 0.127347,-0.276206 0.0068,-0.131649 -0.03442,-0.339018 0.02581,-0.414738 0.06884,-0.07744 0.24781,-0.01721 0.39839,0.05163 z m 9.601363,0.234904 c 0.142835,0.04302 0.308042,0.414738 0.315786,0.68406 0.0069,0.269322 -0.142835,0.435389 -0.277926,0.518853 -0.135091,0.08604 -0.254694,0.08604 -0.32267,-0.04302 -0.06884,-0.123905 -0.08604,-0.373436 -0.03442,-0.642758 0.05163,-0.269322 0.172951,-0.559294 0.314925,-0.517992 z m -1.321054,-4.830582 c 0.09723,-0.01721 0.202207,-0.269322 0.157463,-0.545527 -0.04302,-0.277066 -0.240066,-0.580806 -0.300298,-0.87792 -0.06023,-0.296857 0.01721,-0.58769 -0.06023,-0.524877 -0.07744,0.06023 -0.300298,0.476691 -0.338158,0.795059 -0.03442,0.317507 0.112719,0.538643 0.232322,0.752896 0.120463,0.214253 0.20995,0.421622 0.308042,0.400971 z M 6.4545875,67.434726 c 0.300298,0.531759 0.946154,1.416735 1.373885,2.211449 0.427645,0.795059 0.638456,1.499598 0.945982,1.969491 0.307181,0.469807 0.7133148,0.704711 1.0285848,0.988574 0.3149257,0.283089 0.5403637,0.614364 0.3372967,0.628991 -0.2022057,0.01721 -0.8329175,-0.290833 -1.4412575,-0.746012 -0.60834,-0.45604 -1.19362,-1.064381 -1.689069,-1.720906 -0.495621,-0.656526 -0.900808,-1.361409 -1.25368,-1.997283 -0.352785,-0.635875 -0.653083,-1.202483 -0.900894,-1.720906 -0.24781,-0.517992 -0.443133,-0.988058 -0.697827,-1.609993 -0.255555,-0.622108 -0.57048,-1.395999 -0.810547,-2.059408 -0.240066,-0.663409 -0.405273,-1.216422 -0.487876,-1.596398 -0.08605,-0.38032 -0.08605,-0.587689 0,-0.567039 0.08605,0.01721 0.24781,0.270183 0.405273,0.677177 0.157463,0.407854 0.308042,0.974118 0.510248,1.533929 0.203067,0.560155 0.458622,1.112824 0.698688,1.596398 0.240066,0.483575 0.465505,0.898399 0.6832,1.112824 0.217694,0.214253 0.427645,0.22802 0.60834,0.262438 0.179834,0.03442 0.330414,0.08949 0.382901,0.207369 0.05163,0.117022 0.0068,0.296856 0.308042,0.829477 z M 33.254853,55.57562 c 0.555853,0.338158 1.456403,0.739129 1.997025,1.126419 0.540365,0.387204 0.72106,0.75978 0.90838,1.078234 0.187579,0.317507 0.382902,0.579945 0.600596,0.725361 0.217695,0.145417 0.457761,0.172951 0.630712,0.02581 0.172951,-0.145417 0.277927,-0.462924 0.337298,-0.677176 0.06023,-0.214253 0.07744,-0.324391 -0.09723,-0.469808 -0.172951,-0.145416 -0.532621,-0.325251 -0.998298,-0.573922 -0.465505,-0.248671 -1.036071,-0.567038 -1.539178,-0.870778 -0.502504,-0.3046 -0.938238,-0.594573 -1.321139,-0.808826 -0.382902,-0.214252 -0.713315,-0.352785 -0.953468,-0.414738 -0.240066,-0.06023 -0.389785,-0.05163 -0.36053,0.09723 0.03442,0.145417 0.240067,0.421622 0.795919,0.760641 z M 19.426688,51.118217 c 0.120463,0.166067 0.225438,0.45604 0.360529,0.815709 0.135092,0.358809 0.300299,0.787314 0.382902,1.154039 0.08604,0.365693 0.08604,0.670293 -0.04302,0.829477 -0.127347,0.159183 -0.382901,0.172951 -0.660827,0.131649 -0.277927,-0.04302 -0.578225,-0.138533 -0.713316,-0.332135 -0.135091,-0.193602 -0.104975,-0.483574 -0.06023,-0.788175 0.04302,-0.303739 0.104976,-0.622107 0.165207,-0.967321 0.06023,-0.345041 0.120464,-0.718478 0.217695,-0.884631 0.09723,-0.166068 0.232322,-0.123905 0.352786,0.04302 z m -1.501146,-4.450779 c 0.149718,-0.718478 0.314925,-1.658523 1.065843,-2.722817 0.751175,-1.06438 2.0872,-2.25301 3.39354,-3.386312 1.306081,-1.133475 2.582391,-2.211708 3.348022,-2.757665 0.765803,-0.545527 1.020841,-0.560155 1.223477,-0.476691 0.203067,0.08604 0.352786,0.262438 0.765804,0.822593 0.413017,0.560155 1.088731,1.499597 1.464146,2.225389 0.375158,0.725362 0.450017,1.236901 0.57048,1.734501 0.120464,0.497342 0.285671,0.98126 0.503365,1.243956 0.217695,0.262439 0.487877,0.304601 0.772687,0.214253 0.28567,-0.08949 0.585968,-0.311484 0.87835,-0.45604 0.292554,-0.145416 0.578224,-0.214253 0.765803,-0.123905 0.187579,0.08949 0.277926,0.338158 0.382902,0.725362 0.104975,0.387204 0.225438,0.912252 0.360529,1.333616 0.135092,0.421621 0.28481,0.739989 0.457761,1.057496 0.172951,0.317507 0.368274,0.635875 0.487877,0.891773 0.120463,0.255555 0.165207,0.448296 0.172091,0.75978 0.0068,0.310624 -0.02581,0.739129 -0.04302,1.119622 -0.02581,0.38032 -0.03442,0.711594 0.119603,1.1401 0.157463,0.428505 0.487877,0.953726 0.795919,1.306081 0.308042,0.352786 0.592852,0.53262 0.832918,0.753757 0.240067,0.221136 0.435389,0.483574 0.615224,0.766663 0.180695,0.283089 0.345042,0.587689 0.495621,0.946842 0.150579,0.358809 0.28567,0.774408 0.397529,1.1401 0.112719,0.366553 0.203067,0.68406 0.338158,0.933248 0.135091,0.24867 0.315786,0.428505 0.563597,0.524876 0.24781,0.09637 0.562736,0.110138 0.78043,-0.104115 0.217695,-0.214253 0.338158,-0.656525 0.32267,-0.988316 -0.01721,-0.331274 -0.165207,-0.552411 -0.480133,-0.925847 -0.314925,-0.373437 -0.795918,-0.898571 -1.343941,-1.479119 -0.548108,-0.580805 -1.16359,-1.216164 -1.629095,-1.707052 -0.465505,-0.490458 -0.780431,-0.8355 -0.923438,-1.367948 -0.142835,-0.53262 -0.11272,-1.251013 -0.03442,-1.811081 0.07744,-0.560155 0.195322,-0.960524 0.28481,-1.292228 0.09035,-0.332135 0.150579,-0.594573 0.233182,-0.752897 0.08605,-0.159183 0.187579,-0.214252 0.465505,-0.138532 0.277927,0.07744 0.727943,0.283089 1.156019,0.45604 0.427645,0.172951 0.833778,0.310623 1.19362,0.524876 0.36053,0.214253 0.675455,0.504225 0.983497,0.815709 0.308043,0.310624 0.608341,0.642758 0.885837,0.912252 0.277926,0.269322 0.53348,0.476691 0.81829,0.407855 0.285671,-0.06884 0.600596,-0.414738 1.006042,-0.75978 0.405273,-0.345902 0.900894,-0.690944 1.246194,-1.057238 0.345041,-0.366553 0.540364,-0.753757 0.622967,-1.182091 0.08605,-0.428505 0.05163,-0.898054 -0.21081,-1.333615 -0.262439,-0.43539 -0.758059,-0.836361 -1.193621,-1.230018 -0.435389,-0.394087 -0.810546,-0.781291 -1.238449,-1.251012 -0.427645,-0.469807 -0.90838,-1.022906 -1.231222,-1.4928 -0.32267,-0.469807 -0.487877,-0.857011 -0.517993,-1.2924 -0.02581,-0.435389 0.07744,-0.91905 0.36053,-1.354611 0.28567,-0.435389 0.751175,-0.822593 1.283795,-0.988316 0.533481,-0.166067 1.133475,-0.110998 1.351169,0.01721 0.217695,0.124766 0.05163,0.318368 0.187579,0.200486 0.135091,-0.117882 0.57048,-0.546388 1.035899,-0.878093 0.465505,-0.331274 0.960954,-0.567038 1.449089,-0.843243 0.487877,-0.276206 0.96844,-0.594573 1.456316,-0.836361 0.487877,-0.241787 0.983498,-0.407854 1.463889,-0.560154 0.480133,-0.1523 0.945724,-0.289973 1.298595,-0.545527 0.352786,-0.255555 0.592852,-0.628991 0.893322,-1.534446 0.300298,-0.905368 0.660828,-2.342841 0.893323,-3.434756 0.233182,-1.091828 0.338158,-1.838357 0.20995,-2.418647 -0.127347,-0.580805 -0.487877,-0.995285 -1.028327,-1.465179 -0.540365,-0.469807 -1.261252,-0.995371 -1.426545,-1.437472 -0.165207,-0.442273 0.225439,-0.801942 0.480993,-1.09897 0.255555,-0.296857 0.375158,-0.53176 0.11272,-0.579946 -0.262439,-0.05163 -0.908553,0.08949 -1.426545,0.06884 -0.517993,-0.01721 -0.908122,-0.200486 -1.133475,-0.43539 -0.225438,-0.234903 -0.28481,-0.525736 -0.08949,-0.822593 0.195323,-0.296856 0.64534,-0.601456 1.043385,-0.939958 0.39839,-0.338158 0.743432,-0.711595 1.01327,-1.009053 0.270182,-0.297717 0.465505,-0.517993 0.675455,-0.435389 0.210811,0.08604 0.435389,0.469807 0.555853,0.719338 0.120463,0.248671 0.135091,0.358809 0.345041,0.234904 0.209951,-0.124766 0.615224,-0.483575 1.043299,-0.524876 0.428506,-0.04302 0.878609,0.234903 1.381457,0.711594 0.503365,0.476691 1.058615,1.154212 1.366485,1.720648 0.308043,0.567038 0.367414,1.023078 0.554993,1.223478 0.187578,0.200485 0.503364,0.145416 0.585968,-0.152301 0.08604,-0.296856 -0.06884,-0.83636 -0.375158,-1.382145 -0.308042,-0.545527 -0.773547,-1.098626 -1.066187,-1.596312 -0.292554,-0.497342 -0.413017,-0.940045 -0.292554,-1.479136 0.120464,-0.538901 0.480133,-1.174733 0.878351,-1.617083 0.397529,-0.442101 0.832918,-0.691202 1.238449,-0.960498 0.406134,-0.26958 0.780431,-0.560069 1.036072,-0.953674 0.255554,-0.394088 0.389785,-0.891524 0.262438,-1.638027 -0.127347,-0.746529 -0.517993,-1.741385 -0.863034,-2.4323367 -0.345042,-0.6912018 -0.64534,-1.0784308 -1.126075,-1.3202098 -0.480133,-0.241787 -1.141047,-0.33876 -1.734071,-0.587345 -0.592852,-0.248843 -1.11876,-0.649728 -1.156276,-1.08504 -0.03442,-0.435475 0.413017,-0.905179 0.81829,-1.36824 0.405274,-0.463096 0.765804,-0.919299 1.103445,-1.174966 0.338158,-0.25564 0.653084,-0.310967 0.96844,-0.228106 0.315786,0.0826 0.630712,0.30417 0.832918,0.290231 0.203067,-0.01377 0.292554,-0.262696 0.375158,-0.545957 0.08604,-0.283175 0.157463,-0.601285 0.367413,-0.863749 0.210811,-0.262696 0.555853,-0.470151 0.915866,-0.325079 0.36053,0.145245 0.735687,0.642931 1.16359,1.140582 0.427645,0.497428 0.908639,0.995105 1.283796,1.285147 0.375157,0.29023 0.64534,0.37335 0.675456,0.152042 0.02581,-0.221051 -0.179835,-0.746529 -0.47325,-1.306099 -0.292553,-0.559552 -0.667711,-1.154246 -0.773547,-1.513493 -0.104975,-0.359498 0.06023,-0.483575 0.405274,-0.504312 0.345041,-0.02065 0.870778,0.06195 0.810546,-0.03442 -0.06023,-0.0968 -0.705571,-0.3731783 -1.891877,-0.7048828 C 57.9853,0.85106103 56.258458,0.46428746 55.237616,0.29146556 c -1.021099,-0.172779 -1.336369,-0.1315633 -1.989539,0.00683 -0.653083,0.1381887 -1.643895,0.37309227 -2.604935,0.49063017 -0.960953,0.1174518 -1.891619,0.1174518 -2.619906,0.1106542 -0.727944,-0.00683 -1.25368,-0.020651 -1.606552,0.027535 -0.352786,0.048185 -0.53262,0.15892577 -0.727943,0.24178737 -0.195323,0.083464 -0.405273,0.1381887 -0.826035,0.055069 C 44.442805,1.1413683 43.811835,0.92005933 43.233783,0.89252483 42.655559,0.86499083 42.130338,1.0304555 41.754923,1.1825836 41.379765,1.3346256 41.154327,1.4728143 40.771425,1.458961 40.388524,1.445194 39.847987,1.2792985 39.337566,1.1825836 c -0.510248,-0.096801 -0.990983,-0.1243355 -1.614123,0 -0.622968,0.1245075 -1.388427,0.4007128 -2.17686,0.6909439 -0.788174,0.290231 -1.598893,0.594401 -2.237263,0.836446 -0.637596,0.242046 -1.103445,0.421364 -1.49366,0.552755 -0.390646,0.131391 -0.705572,0.214253 -1.021014,0.235162 -0.315786,0.02065 -0.630711,-0.02065 -1.103702,0.04819 -0.473249,0.06884 -1.103531,0.248843 -1.704127,0.476691 -0.600596,0.228364 -1.171077,0.504484 -2.109228,0.932955 -0.93841,0.428505 -2.24475,1.008993 -3.017867,1.251004 -0.773547,0.241787 -1.013613,0.144986 -1.081159,-0.02754 -0.06884,-0.172607 0.03442,-0.421364 0.330414,-0.718478 0.292554,-0.297286 0.773547,-0.64293 0.450017,-0.504742 -0.32267,0.138189 -1.448572,0.760383 -2.544789,1.534437 -1.095959,0.774064 -2.161888,1.699954 -3.535773,2.868079 -1.373713,1.1679095 -3.055468,2.5775895 -3.986134,3.4345055 -0.930924,0.856925 -1.111275,1.161069 -1.201364,1.430623 -0.09035,0.269322 -0.09035,0.504484 -0.120463,0.81571 -0.02581,0.310795 -0.08949,0.697741 -0.307182,1.084807 -0.217695,0.387032 -0.592852,0.774063 -0.9233517,1.12647 -0.330414,0.352184 -0.6152238,0.670293 -0.8182908,0.988248 -0.203067,0.317507 -0.322669,0.635874 -0.413017,1.01585 -0.09035,0.38032 -0.149719,0.822593 -0.28481,1.306254 -0.135091,0.483574 -0.345041,1.009053 -0.457761,1.389029 -0.112719,0.38032 -0.127347,0.615224 0.08605,0.469807 0.209951,-0.145416 0.64534,-0.670293 1.021014,-1.271491 0.375157,-0.601457 0.6909428,-1.278547 0.9382375,-1.831302 0.24781,-0.553271 0.427645,-0.981518 0.765803,-1.285603 0.338158,-0.303739 0.833778,-0.483574 1.163848,-0.615051 0.330414,-0.131391 0.495621,-0.214253 0.450017,0.09689 -0.04302,0.310623 -0.300298,1.015592 -0.64534,1.672118 -0.345041,0.656525 -0.78043,1.264693 -1.073415,1.817448 -0.292554,0.553271 -0.443133,1.050613 -0.7434307,1.679432 -0.300298,0.628991 -0.7503148,1.388943 -1.0583568,1.838358 -0.308042,0.449156 -0.473249,0.587689 -0.638456,0.497341 -0.165207,-0.08949 -0.330414,-0.407854 -0.473249,-0.718478 -0.142835,-0.310623 -0.262438,-0.615224 -0.427645,-0.739129 -0.165207,-0.124765 -0.375157,-0.06884 -0.630712,0.103255 -0.255554,0.172951 -0.555852,0.462923 -0.870864,0.635874 -0.314926,0.172091 -0.64534,0.22802 -0.870778,0.276206 -0.225439,0.05163 -0.345042,0.08949 -0.443134,0.172951 -0.09723,0.08604 -0.17209,0.207369 -0.465505,0.829476 -0.292554,0.622108 -0.802802,1.741385 -1.463802,3.953093 -0.660828,2.211277 -1.47146,5.514728 -1.93696507,8.666223 -0.46550497,3.151236 -0.58510797,6.150689 -0.45776097,8.873505 0.127347,2.722904 0.50336497,5.169085 0.74343097,6.641406 0.24006607,1.472062 0.34504107,1.96949 0.45001707,2.377431 0.105835,0.407855 0.210811,0.725362 0.330414,0.594573 0.120463,-0.131649 0.255554,-0.711595 0.270182,-1.423619 0.01721,-0.711595 -0.09035,-1.555097 -0.157463,-2.432501 -0.06884,-0.87792 -0.09723,-1.790172 0,-2.584886 0.09809,-0.795058 0.32267,-1.472063 0.443133,-1.990485 0.120464,-0.517993 0.135091,-0.877576 -0.06023,-1.126419 -0.195322,-0.248671 -0.600596,-0.387204 -0.863292,-0.545527 -0.262438,-0.159184 -0.38290107,-0.339019 -0.42850507,-0.58769 -0.04302,-0.248671 -0.01721,-0.567038 0.17295107,-0.877834 0.187578,-0.310623 0.53262,-0.615223 0.998469,-0.995113 0.465505,-0.380321 1.050871,-0.836361 1.78673,-1.71385 0.735688,-0.877834 1.621352,-2.177118 2.101743,-3.047896 0.480132,-0.870607 0.555852,-1.312965 0.53262,-1.762122 -0.02581,-0.449156 -0.142835,-0.905368 -0.300298,-1.320193 -0.157463,-0.414738 -0.352786,-0.787314 -0.510249,-0.815709 -0.157463,-0.02581 -0.277926,0.289973 -0.480132,0.394088 -0.203067,0.103254 -0.487877,-0.0069 -0.675456,-0.289973 -0.187579,-0.283089 -0.277926,-0.739129 -0.345041,-1.202483 -0.06884,-0.462924 -0.11272,-0.932989 -0.08949,-1.416736 0.02581,-0.483574 0.11272,-0.98126 0.277927,-1.50648 0.165207,-0.525737 0.405273,-1.078148 0.57048,-1.34093 0.165207,-0.262438 0.255554,-0.234904 0.300298,0.08604 0.04302,0.317507 0.04302,0.925934 0.03442,1.430589 -0.0069,0.504225 -0.02581,0.905196 -0.0069,1.181832 0.01721,0.276205 0.06023,0.428506 0.203067,0.442273 0.142835,0.01721 0.382902,-0.110999 0.578225,-0.05163 0.195322,0.05163 0.345041,0.289972 0.517992,0.53262 0.172951,0.241787 0.368274,0.490458 0.675456,0.663409 0.308042,0.172951 0.727943,0.269322 1.328625,0.338158 0.600596,0.06884 1.3814568,0.110999 1.8843915,0.159184 0.502504,0.05163 0.727943,0.103254 0.840662,0.131649 0.112719,0.02581 0.112719,0.02581 0.142835,0.22802 0.02581,0.200486 0.08949,0.601457 0.232323,1.057239 0.142835,0.45604 0.368273,0.967579 0.487876,1.416993 0.120464,0.449157 0.135091,0.83636 0.210811,1.029704 0.07744,0.193602 0.209951,0.193602 0.405274,0.07744 0.195322,-0.117022 0.450877,-0.352786 0.653083,-0.469807 0.203067,-0.117022 0.352786,-0.117022 0.480133,0.05163 0.127347,0.172951 0.233183,0.517992 0.255554,1.161095 0.02581,0.642758 -0.03442,1.582717 -0.0068,2.536357 0.02581,0.95364 0.150579,1.921047 0.345041,2.854208 0.195323,0.932731 0.465505,1.831044 0.720199,2.556836 0.255555,0.726222 0.495621,1.278546 0.750315,1.762121 0.255555,0.483574 0.525737,0.898571 0.705572,1.174948 0.180695,0.277066 0.270182,0.414739 0.338158,0.234904 0.06884,-0.179835 0.112719,-0.677177 0.187578,-1.112566 0.07744,-0.435389 0.179835,-0.808825 0.300298,-1.244128 0.120464,-0.43539 0.255555,-0.932989 0.405274,-1.651726 z"
       style="fill:#A38331;fill-rule:evenodd;stroke-width:2.27661"
       id="path1501" />
  </g>
</svg>
