<?xml version="1.0" standalone="no"?>
<!DOCTYPE svg PUBLIC "-//W3C//DTD SVG 20010904//EN"
 "http://www.w3.org/TR/2001/REC-SVG-20010904/DTD/svg10.dtd">
<svg version="1.0" xmlns="http://www.w3.org/2000/svg"
 width="408.000000pt" height="594.000000pt" viewBox="0 0 408.000000 594.000000"
 preserveAspectRatio="xMidYMid meet">

<g transform="translate(0.000000,594.000000) scale(0.100000,-0.100000)"
fill="#000000" stroke="none">
<path d="M1810 5929 c-695 -78 -1311 -521 -1614 -1159 -268 -568 -259 -1226
25 -1792 112 -223 216 -356 504 -645 258 -258 280 -274 358 -259 108 20 169
141 121 241 -8 18 -92 109 -187 201 -238 235 -309 313 -388 432 -125 187 -211
392 -260 622 -20 92 -23 134 -23 330 0 196 3 238 23 330 49 231 133 430 258
620 107 161 304 358 463 463 193 128 395 212 618 259 94 20 136 23 337 23 252
-1 330 -12 527 -75 127 -41 354 -156 463 -235 95 -68 131 -82 192 -70 50 9
119 78 128 128 18 97 -18 147 -190 259 -278 182 -582 292 -907 327 -112 13
-338 12 -448 0z"/>
<path d="M3360 5192 c-24 -11 -43 -32 -59 -66 -22 -45 -23 -52 -13 -110 7 -37
30 -95 57 -146 133 -247 209 -442 245 -627 67 -348 14 -648 -163 -914 -84
-126 -182 -224 -293 -292 -151 -93 -227 -81 -286 48 -21 45 -23 65 -23 195 0
142 8 205 45 360 68 279 193 580 334 804 31 48 56 89 56 91 0 1 -20 8 -45 15
-29 8 -83 11 -157 8 -178 -8 -280 -56 -410 -191 -132 -138 -205 -326 -298
-767 -54 -259 -85 -344 -170 -470 -43 -63 -157 -173 -251 -243 -35 -26 -120
-88 -188 -139 -153 -113 -260 -218 -333 -329 -166 -249 -228 -547 -213 -1026
l7 -223 838 0 837 0 8 138 c9 170 26 291 60 405 63 217 136 326 387 585 109
111 231 248 280 312 422 563 564 1199 403 1807 -71 270 -254 633 -359 716 -94
73 -218 98 -296 59z"/>
<path fill="#4499d9" d="M2625 5305 c-76 -27 -135 -115 -135 -200 1 -57 36 -109 157 -230 101
-101 230 -255 268 -319 9 -15 16 -16 55 -7 87 20 280 5 280 -21 0 -5 -11 -24
-25 -42 -14 -18 -25 -37 -25 -41 0 -5 -6 -16 -14 -24 -8 -9 -35 -55 -61 -104
-36 -66 -44 -91 -36 -101 15 -18 48 -122 78 -246 20 -87 25 -139 30 -309 4
-151 3 -202 -6 -197 -6 4 -11 20 -11 37 0 85 -98 437 -150 538 l-17 35 -13
-24 c-44 -83 -137 -396 -164 -553 -33 -195 -27 -359 18 -446 23 -44 77 -81
117 -81 85 1 227 88 346 213 115 122 197 257 246 412 46 142 50 181 33 306
-67 478 -302 922 -683 1290 -91 88 -118 108 -156 117 -58 15 -82 15 -132 -3z"/>
<path fill="#4499d9" d="M2110 4958 c-114 -58 -146 -219 -63 -313 10 -11 44 -42 76 -68 121
-102 237 -226 336 -359 24 -32 46 -58 50 -58 3 0 17 21 31 48 37 71 104 155
170 214 33 29 60 57 60 62 0 14 -106 142 -195 235 -98 102 -247 229 -292 247
-49 21 -122 17 -173 -8z"/>
<path fill="#4499d9" d="M1894 4431 c-81 -20 -134 -93 -134 -183 0 -68 14 -90 126 -203 147
-148 232 -291 270 -452 22 -93 14 -274 -15 -356 -31 -87 -77 -176 -121 -235
-22 -29 -40 -57 -40 -62 0 -26 33 -2 120 88 147 153 191 252 256 572 14 69 36
169 50 224 14 55 22 108 18 120 -34 108 -293 419 -390 469 -40 21 -100 28
-140 18z"/>
<path d="M1188 1045 c-72 -48 -86 -150 -31 -216 52 -61 18 -59 886 -59 l793 0
44 23 c103 53 108 196 8 257 -32 19 -52 20 -848 20 l-815 0 -37 -25z"/>
<path d="M1200 662 c-49 -26 -84 -97 -75 -153 9 -53 56 -106 105 -119 26 -7
308 -10 834 -8 788 3 795 3 823 24 94 70 96 190 4 251 l-34 23 -811 0 c-765 0
-813 -1 -846 -18z"/>
<path d="M1600 281 c-20 -11 -44 -36 -58 -62 -38 -71 -20 -140 52 -193 26 -20
41 -21 432 -24 383 -2 407 -2 449 17 104 46 113 191 16 257 l-36 24 -410 0
c-381 0 -413 -1 -445 -19z"/>
</g>
</svg>
